/* XPM */
static char *accessories_screenshot[] = {
/* columns rows colors chars-per-pixel */
"36 36 164 2 ",
"   c #355362",
".  c #375463",
"X  c #375564",
"o  c #385564",
"O  c #385565",
"+  c #385665",
"@  c #3C5768",
"#  c #3B5868",
"$  c #3E5A69",
"%  c #3F5B69",
"&  c gray33",
"*  c #555555",
"=  c #565656",
"-  c gray34",
";  c #585858",
":  c gray35",
">  c #5A5A5A",
",  c #5B5B5B",
"<  c gray36",
"1  c #5D5D5D",
"2  c gray37",
"3  c #5F5F5F",
"4  c #405C6B",
"5  c #425D6F",
"6  c #435D6F",
"7  c #435D70",
"8  c #425E70",
"9  c #4A6376",
"0  c #4B6277",
"q  c #4A6377",
"w  c #52697E",
"e  c #53697F",
"r  c #59727E",
"t  c #5A727F",
"y  c #606060",
"u  c gray38",
"i  c #626262",
"p  c gray39",
"a  c #646464",
"s  c #656565",
"d  c gray40",
"f  c #676767",
"g  c #686868",
"h  c DimGray",
"j  c #6A6A6A",
"k  c gray42",
"l  c #6C6C6C",
"z  c #6D6D6D",
"x  c gray43",
"c  c #6F6F6F",
"v  c gray44",
"b  c #717171",
"n  c #727272",
"m  c gray45",
"M  c #747474",
"N  c #777777",
"B  c gray47",
"V  c #797979",
"C  c #7B7B7B",
"Z  c #7C7C7C",
"A  c gray49",
"S  c #7E7E7E",
"D  c gray50",
"F  c #5F7682",
"G  c #5A7B8C",
"H  c #5B7B8E",
"J  c #607783",
"K  c #607883",
"L  c #617884",
"P  c #808080",
"I  c #818181",
"U  c gray51",
"Y  c #838383",
"T  c #848484",
"R  c gray52",
"E  c #868686",
"W  c gray53",
"Q  c #888888",
"!  c gray54",
"~  c #8B8B8B",
"^  c #8D8D8D",
"/  c #8E8E8E",
"(  c gray56",
")  c #909090",
"_  c #929292",
"`  c #939393",
"'  c gray59",
"]  c #979797",
"[  c gray60",
"{  c #9A9A9A",
"}  c #9B9B9B",
"|  c gray61",
" . c #9D9D9D",
".. c #9F9F9F",
"X. c #A0A0A0",
"o. c gray63",
"O. c #A4A4A4",
"+. c #A5A5A5",
"@. c #ACACAC",
"#. c gray68",
"$. c #AFAFAF",
"%. c #A5B2B8",
"&. c #A6B2B9",
"*. c #A6B3BA",
"=. c #B1B1B1",
"-. c #B4B4B4",
";. c gray71",
":. c #B9B9B9",
">. c #BCBCBC",
",. c gray",
"<. c gray75",
"1. c #C0C0C0",
"2. c #C1C1C1",
"3. c gray76",
"4. c gray77",
"5. c #C6C6C6",
"6. c gray78",
"7. c gray79",
"8. c #CACACA",
"9. c #CBCBCB",
"0. c gray80",
"q. c #CECECE",
"w. c #D0D0D0",
"e. c gray82",
"r. c #D2D2D2",
"t. c #D2D3D3",
"y. c #D3D4D4",
"u. c #D3D4D5",
"i. c #D5D6D7",
"p. c #D7D7D7",
"a. c #D6D7D8",
"s. c #D7D8D9",
"d. c #D7DADB",
"f. c #D8D9DA",
"g. c gray86",
"h. c #D8DBDC",
"j. c #D9DCDD",
"k. c gainsboro",
"l. c #DDDDDD",
"z. c gray87",
"x. c gray88",
"c. c #E2E2E2",
"v. c gray89",
"b. c #E6E6E6",
"n. c #E7E7E7",
"m. c gray92",
"M. c #ECECEC",
"N. c #EFEFEF",
"B. c gray94",
"V. c #F1F1F1",
"C. c gray95",
"Z. c #F3F3F3",
"A. c #F4F4F4",
"S. c gray96",
"D. c #F6F6F6",
"F. c gray97",
"G. c #F8F8F8",
"H. c #F9F9F9",
"J. c gray98",
"K. c #FBFBFB",
"L. c gray99",
"P. c #FDFDFD",
"I. c #FEFEFE",
"U. c white",
/* pixels */
"U.U.U.U.U.U.U.U.U.U.U.U.U.U.U.G.m.z.l.n.S.U.U.U.U.U.U.U.U.U.U.U.U.U.U.U.",
"U.U.U.U.U.U.U.U.U.U.U.K.w.+.U v v b l d d V  .q.J.U.U.U.U.U.U.U.U.U.U.U.",
"U.U.U.U.U.U.U.U.U.F.-.B c c c c c c l s s s s s x $.A.U.U.U.U.U.U.U.U.U.",
"U.U.U.U.U.U.U.U.7.V c c c c c c c c c f s s s s s s z >.U.U.U.U.U.U.U.U.",
"U.U.U.U.U.U.H.X.c c c c c c c c c c c l s s s s s s s s _ H.U.U.U.U.U.U.",
"U.U.U.U.U.D.( c c c c c c c c c c c c c h s s s s s s s s I V.U.U.U.U.U.",
"U.U.U.U.J.~ x x x x x x x x x x x x x x l a a a a a a a a a A A.U.U.U.U.",
"U.U.U.I...x x x x x x x x x x x x x x x x j a a a a a a a a a ! U.U.U.U.",
"U.U.U.8.x x x x x x x x x x x x x x x x x z f a a a a a a a a a =.U.U.U.",
"U.U.Z.S k j j j j j j j k b b b b b b b b b v p p p p p p p p p V M.U.U.",
"U.U.$.p p p p p p p p p j C P P P P P P P P P k p p p p p p p s x | U.U.",
"U.G.z p p p p p p p p a N U W O.6.p.p.6.O.W W D a p p p p p p k z c C.U.",
"U.9.p p p p p p p p p x Z ` s.%.J $ $ J &.a._ W v p p p p p d z z j ;.U.",
"U.[ i i i i i i i i p N / j.r   # 6 6 #   t h.) U a i i i p k l l l Q P.",
"U.M i i i i i i i i v A f.r X q e e e e 9 . t u.R M i i i g l l l l n F.",
"D.p i i i i i i i d V X.%.  q w 8 o + 6 w 0   *.| T f i p z l l l l f v.",
"b.u u u u u u u u m S 5.F # e 6   H G   6 e @ K 1.T V u k k k k k k d e.",
"k.u u u u u u u h V T p.% 5 e o         O e 5 % r.P T c l k k k k k d 1.",
"l.u u u u u u u z D R p.% 5 e +         O e 6 4 r.D R b k k k k k k s <.",
"n.u u u u u u s k V R 5.F # e 6         7 e @ K 1.P Z k k k k k k k a q.",
"D.u y y y y y h j k P o.&.  9 w 6 + + 6 w 9   *.] P z j j j j j j j p x.",
"U.M y y y y s j j j m T i.t . 0 e e e e 9 . t t.V N j j j j j j j h l B.",
"U.[ y y y u j j j j k S ) h.t   @ 6 5 #   t d.Y S k j j j j j j j f T D.",
"U.0.3 3 3 d h h h h h c U ^ y.*.K % % L *.t.U A n h h h h h h h h i $.K.",
"U.K.h 3 i h h h h h h j V Y U { <.r.r.,.' B D A j h h h h h h h g s v.U.",
"U.U.#.y f h h h h h h h l I Y Y U S A A P Y Y x h h h h h h h h i ` F.U.",
"U.U.S.A h h h h h h h h h l h h h h h h h h h d s a p i i i p i f g.P.U.",
"U.U.U.4.g g g g g g g g g h 2 2 2 2 2 2 2 2 2 2 2 2 2 2 2 2 2 = O.F.U.U.",
"U.U.U.U.' g g g g g g g g g p 2 2 2 2 2 2 2 2 2 2 2 2 2 2 2 ; Z N.I.U.U.",
"U.U.U.U.H.E g g g g g g g g g 3 2 2 2 2 2 2 2 2 2 2 2 2 2 ; k c.L.U.U.U.",
"U.U.U.U.U.Z.D f f f f f f f f a 1 1 1 1 1 1 1 1 1 1 1 1 - l k.K.U.U.U.U.",
"U.U.U.U.U.U.F./ f f f f f f f f 3 1 1 1 1 1 1 1 1 1 , * C c.K.U.U.U.U.U.",
"U.U.U.U.U.U.U.U.:.l f f f f f f d 1 1 1 1 1 1 1 < - < O.N.L.U.U.U.U.U.U.",
"U.U.U.U.U.U.U.U.U.M.} g s f f f f i 1 1 1 < > - < ( z.F.I.U.U.U.U.U.U.U.",
"U.U.U.U.U.U.U.U.U.U.U.V.-.R z u u a : = & i D @.n.F.P.U.U.U.U.U.U.U.U.U.",
"U.U.U.U.U.U.U.U.U.U.U.U.U.P.G.n.r.3.2.w.v.C.D.K.U.U.U.U.U.U.U.U.U.U.U.U."
};
