/* XPM */
static char *battery[] = {
/* columns rows colors chars-per-pixel */
"36 36 70 1 ",
"  c #2ECC71",
". c #2FCC72",
"X c #30CD73",
"o c #34CD75",
"O c #35CE75",
"+ c #35CE76",
"@ c #36CE77",
"# c #39CF78",
"$ c #3BCF7A",
"% c #3CCF7A",
"& c #3DD07B",
"* c #3FD07D",
"= c #40D07D",
"- c #41D17E",
"; c #46D281",
": c #50D488",
"> c #51D589",
", c #52D589",
"< c #53D58A",
"1 c #56D68C",
"2 c #57D68D",
"3 c #58D68D",
"4 c #5ED891",
"5 c #5ED892",
"6 c #5FD892",
"7 c #60D893",
"8 c #66DA97",
"9 c #6CDB9B",
"0 c #78DEA3",
"q c #79DEA4",
"w c #7ADFA5",
"e c #7DDFA7",
"r c #82E0AA",
"t c #8AE2AF",
"y c #8BE3B0",
"u c #8CE3B1",
"i c #90E4B3",
"p c #96E5B8",
"a c #97E6B8",
"s c #9AE6BB",
"d c #ABEBC6",
"f c #B5EDCD",
"g c #B6EDCD",
"h c #B7EDCE",
"j c #B8EECF",
"k c #C0F0D4",
"l c #C2F0D5",
"z c #C3F0D6",
"x c #D5F5E3",
"c c #D6F5E3",
"v c #D7F5E4",
"b c #D8F5E4",
"n c #D8F6E5",
"m c #D9F6E5",
"M c #DAF6E6",
"N c #DBF6E6",
"B c #DCF6E7",
"V c #E1F8EA",
"C c #E1F8EB",
"Z c #E3F8EC",
"A c #E7F9EF",
"S c #EAFAF1",
"D c #EBFAF1",
"F c #EBFAF2",
"G c #F3FCF7",
"H c #F4FCF7",
"J c #F4FCF8",
"K c #FDFEFD",
"L c #FDFFFE",
"P c white",
/* pixels */
"PPPPPPPPPPPPPPPPPPPPPPPPPPPPPPPPPPPP",
"PPPPPPPPPPPPPPPPPPPPPPPPPPPPPPPPPPPP",
"PPPPPPPPPPPPPPPPPPPPPPPPPPPPPPPPPPPP",
"PPPPPPPPPPPPPPPPPPPPPPPPPPPPPPPPPPPP",
"PPPPPPPPPPPPPPPPPPPPPPPPPPPPPPPPPPPP",
"PPPPPPPPPPPPPPPPPPPPPPPPPPPPPPPPPPPP",
"PPPPPPPPPPPPPPPKSxxSKPPPPPPPPPPPPPPP",
"PPPPPPPPPPPPPl0$    %0lPPPPPPPPPPPPP",
"PPPPPPPPPPPc4          5vPPPPPPPPPPP",
"PPPPPPPPPPfO    -33-    +gPPPPPPPPPP",
"PPPPPPPPPf.  OuBPPPPNuO  .hPPPPPPPPP",
"PPPPPPPPxO  <ZPPPPPPPPC,  +vPPPPPPPP",
"PPPPPPPP4  ,HPPPPxPPPPPG>  7PPPPPPPP",
"PPPPPPPl  OZPPPPPrPPPPPPCO  zPPPPPPP",
"PPPPPPP0  uPPPPPJ#PPPPPPPy  qPPPPPPP",
"PPPPPPK$  BPPPPPd PPPPPPPM  &LPPPPPP",
"PPPPPPS  -PPPPPP3 PPPPPPPP=  FPPPPPP",
"PPPPPPx  3PPPPPx  88ePPPPP3  xPPPPPP",
"PPPPPPx  3PPPPPr    aPPPPP1  cPPPPPP",
"PPPPPPS  -PPPPPsii XAPPPPP*  FPPPPPP",
"PPPPPPK%  NPPPPPPP 9PPPPPm  &LPPPPPP",
"PPPPPPPq  uPPPPPPP kPPPPPt  wPPPPPPP",
"PPPPPPPl  OCPPPPPP;KPPPPVo  zPPPPPPP",
"PPPPPPPP5  >GPPPPPpPPPPG:  7PPPPPPPP",
"PPPPPPPPc+  >CPPPPAPPPV:  @nPPPPPPPP",
"PPPPPPPPPg.  oyMPPPPmto  .jPPPPPPPPP",
"PPPPPPPPPPh+    =32*    @jPPPPPPPPPP",
"PPPPPPPPPPPb6          7bPPPPPPPPPPP",
"PPPPPPPPPPPPPzq&    &wzPPPPPPPPPPPPP",
"PPPPPPPPPPPPPPPLDccDLPPPPPPPPPPPPPPP",
"PPPPPPPPPPPPPPPPPPPPPPPPPPPPPPPPPPPP",
"PPPPPPPPPPPPPPPPPPPPPPPPPPPPPPPPPPPP",
"PPPPPPPPPPPPPPPPPPPPPPPPPPPPPPPPPPPP",
"PPPPPPPPPPPPPPPPPPPPPPPPPPPPPPPPPPPP",
"PPPPPPPPPPPPPPPPPPPPPPPPPPPPPPPPPPPP",
"PPPPPPPPPPPPPPPPPPPPPPPPPPPPPPPPPPPP"
};
