/* XPM */
static char *bitmap2component[] = {
/* columns rows colors chars-per-pixel */
"36 36 107 2 ",
"   c gray20",
".  c #343434",
"X  c #373737",
"o  c #393939",
"O  c gray23",
"+  c gray24",
"@  c #464646",
"#  c gray28",
"$  c gray30",
"%  c gray32",
"&  c #535353",
"*  c gray33",
"=  c #555555",
"-  c #565656",
";  c gray34",
":  c gray35",
">  c #5A5A5A",
",  c gray36",
"<  c #5F5F5F",
"1  c #606060",
"2  c #747474",
"3  c gray46",
"4  c #767676",
"5  c #797979",
"6  c #7B7B7B",
"7  c #808080",
"8  c #8E8E8E",
"9  c #939393",
"0  c #959595",
"q  c #A0A0A0",
"w  c gray64",
"e  c gray66",
"r  c gray69",
"t  c #B1B1B1",
"y  c #B2B2B2",
"u  c gray70",
"i  c #B7B7B7",
"p  c gray72",
"a  c #B9B9B9",
"s  c gray73",
"d  c #BBBBBB",
"f  c #BCBCBC",
"g  c gray74",
"h  c gray",
"j  c gray75",
"k  c #C0C0C0",
"l  c #C1C1C1",
"z  c gray76",
"x  c #C3C3C3",
"c  c gray77",
"v  c #C5C5C5",
"b  c #C6C6C6",
"n  c gray78",
"m  c #C8C8C8",
"M  c gray79",
"N  c #CACACA",
"B  c #CBCBCB",
"V  c gray80",
"C  c #CDCDCD",
"Z  c #CECECE",
"A  c gray81",
"S  c #D0D0D0",
"D  c gray82",
"F  c #D2D2D2",
"G  c LightGray",
"H  c gray83",
"J  c #D5D5D5",
"K  c gray84",
"L  c #D7D7D7",
"P  c #D8D8D8",
"I  c gray85",
"U  c #DADADA",
"Y  c gray86",
"T  c gainsboro",
"R  c #DDDDDD",
"E  c gray87",
"W  c gray88",
"Q  c #E1E1E1",
"!  c #E2E2E2",
"~  c gray89",
"^  c #E4E4E4",
"/  c gray90",
"(  c #E6E6E6",
")  c #E7E7E7",
"_  c gray91",
"`  c #E9E9E9",
"'  c #EAEAEA",
"]  c gray92",
"[  c #ECECEC",
"{  c #EEEEEE",
"}  c #EFEFEF",
"|  c gray94",
" . c #F1F1F1",
".. c gray95",
"X. c #F3F3F3",
"o. c #F4F4F4",
"O. c gray96",
"+. c #F6F6F6",
"@. c gray97",
"#. c #F8F8F8",
"$. c #F9F9F9",
"%. c gray98",
"&. c #FBFBFB",
"*. c gray99",
"=. c #FDFDFD",
"-. c #FEFEFE",
";. c white",
/* pixels */
";.;.;.;.;.;.;.;.;.;.;.;.;.;.;.=.$.@.@.$.=.;.;.;.;.;.;.;.;.;.;.;.;.;.;.;.",
";.;.;.;.;.;.;.;.;.;.;.-.X._ W T T T T T T W _ X.-.;.;.;.;.;.;.;.;.;.;.;.",
";.;.;.;.;.;.;.;.;.*.[ R Y Y Y Y Y Y Y Y Y Y Y Y R ' &.;.;.;.;.;.;.;.;.;.",
";.;.;.;.;.;.;.;. .E Y Y Y Y Y Y Y Y Y Y Y Y Y Y Y Y R [ ;.;.;.;.;.;.;.;.",
";.;.;.;.;.;.=.) Y Y Y Y Y Y Y Y Y Y Y Y Y Y Y Y Y Y Y Y Q *.;.;.;.;.;.;.",
";.;.;.;.;.*.! Y Y Y Y Y Y Y Y Y Y Y Y Y Y Y Y Y Y Y Y Y Y E $.;.;.;.;.;.",
";.;.;.;.-.! U U U U U U U U U U U U U U U U U U U U U U U U I $.;.;.;.;.",
";.;.;.;.) U U U U U U U U U U U U U U U U U U U U U U U U U U K ;.;.;.;.",
";.;.;.| U U U U U U U U U U U U U U U U U U U U U U U U U U U I T ;.;.;.",
";.;.*.T I I I I I I I I x 7 h x 7 h x 7 h x 7 h I I I I I I I I F ..;.;.",
";.;.] I I I I I I I I I x 7 u x 7 u x 7 u x 7 u I I I I I I I I P S ;.;.",
";.-.Y I I I I I I I I e > # = : # = : # = : # = w I I I I I I I I S o.;.",
";...I I I I I I I x x > + : : : : : : : : : : + = h x I I I I I I H J ;.",
";.( P P P P P P P 7 7 @ ; m C C C C C C C C C : @ 7 7 S P P P P P P m =.",
";.T P P P P P P P h y & ; C P P P P P P P P P , & y y m P P P P P P N @.",
"=.P P P P P P P P z z ; ; C K 8 K P P P P P P , & s z P P P P P P P B ` ",
"#.L L L L L L L L 7 7 @ ; B 3   4 L L K B L L , @ 7 7 A L L L L L L V E ",
"+.L L L L L L L L g t % ; 5       9 J 2 $ B L , % t t n L L L L L L V L ",
"+.L L L L L L L L l l - X         o <     1 H , % a l L L L L L L L B K ",
"#.L L L L L L L L 7 7 @                     6 , @ 7 7 A L L L L L L M T ",
"=.K K K K K K K K g t %                     . O % t t b K K K K K K v ( ",
";.Y K K K K K K K k k -                         % p k K K K K K K H z | ",
";./ K K K K K K K 7 7 @                         @ 7 7 Z K K K K K A v +.",
";. .J J J J J J J f r *                         * r r v J J J J J n A &.",
";.-.P J J J J J J J J q * # * * # * * # * * # * 0 V J J J J J J F l ) ;.",
";.;._ J J J J J J J J J d 7 r i 7 r i 7 r i 7 r B G J J J J J J m n @.;.",
";.;.&.L J J J J J J J J k 7 r k 7 r k 7 r k 7 r J J J J J J J S k ~ =.;.",
";.;.;.' H H H H H H H H H C v H C v H C v H C v H H H H H H G x V @.;.;.",
";.;.;.;.E H H H H H H H H H H H H H H H H H H H H H H H H H b x } -.;.;.",
";.;.;.;.*.I H H H H H H H H H H H H H H H H H H H H H H H n l / *.;.;.;.",
";.;.;.;.;.&.G G G G G G G G G G G G G G G G G G G G G F v k ^ &.;.;.;.;.",
";.;.;.;.;.;.%.H F G G G G G G G G G G G G G G G G G Z z z ( &.;.;.;.;.;.",
";.;.;.;.;.;.;.;.Y V F G G G G G G G G G G G G G D b j C } *.;.;.;.;.;.;.",
";.;.;.;.;.;.;.;.;.X.A N Z G G G G G G G G D V v j n ^ @.-.;.;.;.;.;.;.;.",
";.;.;.;.;.;.;.;.;.;.;.O.K b v b n n b c l h c A ' @.=.;.;.;.;.;.;.;.;.;.",
";.;.;.;.;.;.;.;.;.;.;.;.;.=.#.{ Q U U E ) ..+.&.;.;.;.;.;.;.;.;.;.;.;.;."
};
