/* XPM */
static char *btsync_user[] = {
/* columns rows colors chars-per-pixel */
"36 36 103 2 ",
"   c #003775",
".  c #003877",
"X  c #003A7B",
"o  c #0E427C",
"O  c #16467C",
"+  c #003E84",
"@  c #004087",
"#  c #0E4684",
"$  c #00428B",
"%  c #0D4A8E",
"&  c #104785",
"*  c #154984",
"=  c #1B4E86",
"-  c #124C8C",
";  c #194E88",
":  c #004591",
">  c #104D90",
",  c #0F5199",
"<  c #135196",
"1  c #1D5594",
"2  c #11539A",
"3  c #1D599A",
"4  c #275486",
"5  c #285486",
"6  c #235790",
"7  c #255B97",
"8  c #245C99",
"9  c #346296",
"0  c #396697",
"q  c #33659B",
"w  c #1D5CA0",
"e  c #2E65A0",
"r  c #356AA5",
"t  c #3A6CA3",
"y  c #356CA8",
"u  c #396FAA",
"i  c #426792",
"p  c #496D95",
"a  c #48709C",
"s  c #406DA0",
"d  c #4A75A4",
"f  c #4D7CAF",
"g  c #557BA5",
"h  c #527CAA",
"j  c #507EB1",
"k  c #5C83AF",
"l  c #5583B4",
"z  c #5A85B5",
"x  c #5B89BA",
"c  c #6785A6",
"v  c #6587AA",
"b  c #688AAF",
"n  c #688DB7",
"m  c #6E93BB",
"M  c #7393B7",
"N  c #7B99BC",
"B  c #7B9EC4",
"V  c #7EA0C4",
"C  c #8197B0",
"Z  c #849FBD",
"A  c #8CA0B6",
"S  c #8EA4BD",
"D  c #92A6BC",
"F  c #84A3C5",
"G  c #8BA4C0",
"H  c #8FA9C5",
"J  c #8FAAC9",
"K  c #93ABC7",
"L  c #97B0CC",
"P  c #9AB2CC",
"I  c #9AB5D2",
"U  c #A7B6C5",
"Y  c #A0B5CD",
"T  c #ADB9C8",
"R  c #AABED4",
"E  c #A6BFDA",
"W  c #A7C0DA",
"Q  c #B3C4D7",
"!  c #BAC5D1",
"~  c #BEC8D4",
"^  c #B6C7D9",
"/  c #BACADC",
"(  c #C0CEDD",
")  c #C5D1DF",
"_  c #D5D9DE",
"`  c #C5D4E4",
"'  c #C8D4E1",
"]  c #D2DBE6",
"[  c #DCDFE2",
"{  c #D3DEEB",
"}  c #DEE0E4",
"|  c #DCE3EC",
" . c #E2E4E6",
".. c #E4E7EA",
"X. c #E5E9EE",
"o. c #EFEFEF",
"O. c #E7ECF1",
"+. c #EBEEF2",
"@. c #ECF0F5",
"#. c #F5F6F6",
"$. c #F3F6F9",
"%. c #F6F8FB",
"&. c #FEFEFE",
/* pixels */
"&.&.&.&.&.&.&.&.&.&.&.&.&.&.&.%.{ ` ` { %.&.&.&.&.&.&.&.&.&.&.&.&.&.&.&.",
"&.&.&.&.&.&.&.&.&.&.&.%.W x w : : : : : : w x W %.&.&.&.&.&.&.&.&.&.&.&.",
"&.&.&.&.&.&.&.&.&.@.B 2 : : : : : , : : : : : : 2 B @.&.&.&.&.&.&.&.&.&.",
"&.&.&.&.&.&.&.&.I 2 : : : : : : : : : : : : : : : : 2 I &.&.&.&.&.&.&.&.",
"&.&.&.&.&.&.%.l : : : : : : : : : : : : : : : : : : : : j $.&.&.&.&.&.&.",
"&.&.&.&.&.@.y : : : : : : : : : : : : : : : : : : : : : : r +.&.&.&.&.&.",
"&.&.&.&.%.u : : : : : : : : : : : : : : : : : : : : : : : : e @.&.&.&.&.",
"&.&.&.&.z : : : $ : : : : : : $ : : : : : : : : : : : : : : : d &.&.&.&.",
"&.&.&.I : $ : : : : : : : : : : $ : : $ : : : : : : : $ : : : $ G &.&.&.",
"&.&.@.2 : : : $ : $ : $ : $ $ : 3 r u 1 $ : $ $ : $ : : : $ : : > X.&.&.",
"&.&.B $ : $ : $ : $ $ : $ 2 V | %.%.&.%.| J < $ $ $ : $ : $ $ : $ v &.&.",
"&.%.< : $ : $ : $ : $ $ h X.%.%.%.&.%.%.%.%.o.k $ : $ : $ : $ $ $ % @.&.",
"&.E $ : $ $ $ $ $ : $ n %.%.%.#.~ H H ^ #.%.%.#.n $ $ $ $ $ : $ $ $ D &.",
"&.z $ $ $ : : $ $ $ r #.%.%.Q 6 o @ $ $ 1 Q #.&.#.t $ $ : $ $ $ $ $ a &.",
"&.3 $ $ $ $ $ $ $ $ ( %.%.Y o @ $ $ $ $ $ $ P %.%.' F B $ $ $ : $ $ ; #.",
"$.$ $ $ $ $ $ $ $ $ u K ] * @ $ $ $ $ $ $ @ < o.&.%.%.g $ $ $ $ $ $ @ } ",
"{ $ $ $ $ $ $ $ + % $ + + + $ $ $ $ $ $ $ t O.%.%.&.%.* $ $ $ $ $ $ + ! ",
"` $ $ $ $ $ $ $ : m ) s : + $ : $ @ $ $ $ $ 7 R #.#.( + $ $ @ $ $ $ + U ",
"` $ $ + + $ + $ + / #.&./ 8 $ + $ $ @ $ $ $ $ + a ' N + $ + $ + $ $ + U ",
"{ + $ + $ $ $ $ % $.%.%.&.O.t $ @ @ $ @ + $ $ + + $ & + $ $ $ $ + $ X ! ",
"%.$ + $ $ $ $ $ j $.%.%.@.= + + $ @ $ $ $ + % ( F 8 $ $ + $ $ + $ + X [ ",
"&.1 $ + + $ + + B M ( %.&.T + + $ + + $ + $ L &.%.` + + $ + + $ $ + * #.",
"&.z + $ + + + $ + + 9 #.%.#.Q 7 + + $ + 1 R %.#.#.0 + + + $ $ + @ + p #.",
"&.E $ + $ + $ + $ + $ h #.%.%.#./ J J ^ %.%.&.#.b X $ + $ + + $ $ X A &.",
"&.%.- + + + + + + + $ + f O.%.%.&.#.%.#.&.%.O.g X + + + $ + + $ + o  .&.",
"&.&.N $ + $ + $ + + + + + % Z { #.&.#.%.[ Z * X + + + $ + + + + X g #.&.",
"&.&.@.- $ + + + + + + + + + + + = 0 0 = X + + + + + + + + + + + O _ &.&.",
"&.&.&.P + + + + + + + + + + + + + + + + + + + + + + + + + + + + C %.&.&.",
"&.&.&.&.h + + + + + + + + + + + + + + + + + + + + + + + + + X i o.&.&.&.",
"&.&.&.&.%.q + + X + + + + + + + + + + + + + + + + + + + + X 4 [ &.&.&.&.",
"&.&.&.&.&.+.9 + + + + + + + + + + + + + + + + + + + + + . 5 ] &.&.&.&.&.",
"&.&.&.&.&.&.@.d + + + X + + X + + + X + + + X + + X +   i [ &.&.&.&.&.&.",
"&.&.&.&.&.&.&.&.S & X + + + + X X + + + + + @ X @   o C #.%.&.&.&.&.&.&.",
"&.&.&.&.&.&.&.&.&.X.c # X + + + + + + X + X X . o c _ #.&.&.&.&.&.&.&.&.",
"&.&.&.&.&.&.&.&.&.&.&.@.D p O X           O i C  .%.&.&.&.&.&.&.&.&.&.&.",
"&.&.&.&.&.&.&.&.&.&.&.&.&.&.%...( T T ! } #.#.&.&.&.&.&.&.&.&.&.&.&.&.&."
};
