/* XPM */
static char *device_mem[] = {
/* columns rows colors chars-per-pixel */
"36 36 57 1 ",
"  c #073642",
". c #093742",
"X c #2F5544",
"o c #315744",
"O c #315844",
"+ c #335844",
"@ c #385D45",
"# c #4A6B45",
"$ c #577546",
"% c #587646",
"& c #5C7946",
"* c #5D7A46",
"= c #617D46",
"- c #537174",
"; c #547274",
": c #678247",
"> c #708947",
", c #7E9548",
"< c #708975",
"1 c #C3CB3C",
"2 c #D2D634",
"3 c #E0E22D",
"4 c #819749",
"5 c #839848",
"6 c #849848",
"7 c #95A649",
"8 c #9BAB49",
"9 c #ADB947",
"0 c #A2B14A",
"q c #A6B44A",
"w c #AAB748",
"e c #B1BD44",
"r c #819676",
"t c #8DA076",
"y c #9BAB77",
"u c #B4C042",
"i c #BBC36E",
"p c #BEC87A",
"a c #C1C879",
"s c #C2CB82",
"d c #C5CE89",
"f c #CCD497",
"g c #D0D79E",
"h c #D5DBA5",
"j c #D6DBA8",
"k c #D6DCAB",
"l c #E7EBCF",
"z c #E8EBD0",
"x c #E9ECD1",
"c c #E9ECD2",
"v c #EAEDD4",
"b c #ECEFD9",
"n c #EDF0DB",
"m c #EEF0DC",
"M c #F8F9F2",
"N c #FDFDFB",
"B c white",
/* pixels */
"BBBBBBBBBBBBBBBBBBBBBBBBBBBBBBBBBBBB",
"BBBBBBBBBBBBBBBBBBBBBBBBBBBBBBBBBBBB",
"BBBBBBBBBBBBBBBBBBBBBBBBBBBBBBBBBBBB",
"BBBBBBBBBBBBBBBBBBBBBBBBBBBBBBBBBBBB",
"BBBBBBBBBBBBBBBBBBBBBBBBBBBBBBBBBBBB",
"BBBBBBBBBBBBBBBBBBBBBBBBBBBBBBBBBBBB",
"BBBBBBBBBBBBBBBBBBBBBBBBBBBBBBBBBBBB",
"BBBBBBBBBBBBBBBBBBBBBBBBBBBBBBBBBBBB",
"BBBBBBBBBBBBBBBBBBBBBBBBBBBBBBBBBBBB",
"BbllllllllllllllllllllllllllllxxxzbB",
"nqqqqqqqqqqqqqqqqqqqqqqqqqqqqqaaaiqm",
"cqqqqqqqqqqqqqqqqqqqqqqqqqqqqqaaaiqc",
"cqqqqqqqqqqqqqqqqqqqqqqqqqqqqqaaaiqc",
"cqq>&&&=0qq5&&&*7qq7*&&&6qq0=&ttyiqc",
"cqq.    4qqo    %qq%    oqq4  --;iqc",
"cqq     ,qqX    $qq$    Xqq,  ---iqc",
"cqq     ,qqX    $qq$    Xqq,  ---iqc",
"cqq     ,qqX    $qq$    Xqq,  ---iqc",
"cqq     ,qqX    $qq$    Xqq,  ---iqc",
"cqq     ,qqX    $qq$    Xqq,  ---iqc",
"cqq     ,qqX    $qq$    Xqq,  ---iqc",
"cqq#OOO@8qq:OOO+6qq5+OOO:qq8@O<<riqc",
"cqqqqqqqqqqqqqqqqqqqqqqqqqqqqqaaaiqc",
"cqqqqqqqqqqqqqqqqqqqqqqqqqqqqqaaaiqc",
"vqqqqee9uwuwu9ee9uwuwu9qqqqqqqaaaiqv",
"Nkgdq2213u3u312213u3u31qggggggjjjhkN",
"BBBcq2213u3u312213u3u31qBBBBBBBBBBBB",
"BBBMsppppppppppppppppppfBBBBBBBBBBBB",
"BBBBBBBBBBBBBBBBBBBBBBBBBBBBBBBBBBBB",
"BBBBBBBBBBBBBBBBBBBBBBBBBBBBBBBBBBBB",
"BBBBBBBBBBBBBBBBBBBBBBBBBBBBBBBBBBBB",
"BBBBBBBBBBBBBBBBBBBBBBBBBBBBBBBBBBBB",
"BBBBBBBBBBBBBBBBBBBBBBBBBBBBBBBBBBBB",
"BBBBBBBBBBBBBBBBBBBBBBBBBBBBBBBBBBBB",
"BBBBBBBBBBBBBBBBBBBBBBBBBBBBBBBBBBBB",
"BBBBBBBBBBBBBBBBBBBBBBBBBBBBBBBBBBBB"
};
