/* XPM */
static char *distributor_logo_antergos[] = {
/* columns rows colors chars-per-pixel */
"36 36 111 2 ",
"   c #020B22",
".  c #0A2972",
"X  c #394663",
"o  c #08318D",
"O  c #0A3593",
"+  c #0B399B",
"@  c #113B95",
"#  c #133D9B",
"$  c #0C3DA2",
"%  c #0A3BAD",
"&  c #0B3EB1",
"*  c #0E40A6",
"=  c #0D41AF",
"-  c #1442A7",
";  c #1243AD",
":  c #0C40B5",
">  c #0D44BC",
",  c #1445B3",
"<  c #194BB5",
"1  c #1147BC",
"2  c #174BB8",
"3  c #1D4EBF",
"4  c #204CA5",
"5  c #2C51A1",
"6  c #3157AD",
"7  c #375BAB",
"8  c #3A5DAB",
"9  c #2350B5",
"0  c #325EBF",
"q  c #3F67BD",
"w  c #466CB5",
"e  c #4B6BB6",
"r  c #4B6DB9",
"t  c #5273BE",
"y  c #637EB5",
"u  c #0E47C1",
"i  c #0F4AC5",
"p  c #124BC4",
"a  c #194EC0",
"s  c #104ECB",
"d  c #1D50C0",
"f  c #1150CF",
"g  c #2153C2",
"h  c #2358C7",
"j  c #2D5BC1",
"k  c #2E60CC",
"l  c #3664C9",
"z  c #3966C9",
"x  c #346AD7",
"c  c #4A74CD",
"v  c #5877C2",
"b  c #5E7CC2",
"n  c #547AC8",
"m  c #4776D5",
"M  c #4A77D4",
"N  c #6580B6",
"B  c #5F82D1",
"V  c #5982D9",
"C  c #6583C3",
"Z  c #6D8BC6",
"A  c #6887CC",
"S  c #718CCE",
"D  c #7F97CB",
"F  c #6185D2",
"G  c #6C8DD6",
"H  c #648BD9",
"J  c #7490D1",
"K  c #7893D2",
"L  c #7E99D3",
"P  c #7693D9",
"I  c #7998DA",
"U  c #819AD4",
"Y  c #859ED8",
"T  c #87A0D6",
"R  c #8CA3D4",
"E  c #8CA5DB",
"W  c #94AADB",
"Q  c #9BAFDF",
"!  c #87A5E1",
"~  c #95ADE3",
"^  c #96AFED",
"/  c #9CB1E0",
"(  c #98B3EF",
")  c #9BB4F2",
"_  c #A2B7E4",
"`  c #A9BCEB",
"'  c #A6BEF7",
"]  c #ACC0ED",
"[  c #B2C4E7",
"{  c #B3C4EA",
"}  c #BBCAEC",
"|  c #AEC3F7",
" . c #AEC3F8",
".. c #B6CAF9",
"X. c #B9CCFA",
"o. c #C4D3F4",
"O. c #CDD9F6",
"+. c #C3D4FB",
"@. c #C8D7FC",
"#. c #CCDAFC",
"$. c #D1DCF2",
"%. c #D1DEFC",
"&. c #D7E1F5",
"*. c #DEE6F6",
"=. c #D6E2FC",
"-. c #DBE5FC",
";. c #DFE8FD",
":. c #E4ECFD",
">. c #E8EFFC",
",. c #EBF1FD",
"<. c #F2F6FE",
/* pixels */
"y 8 w w w w w w w w w w w w w w w w w w w w w w w w w w w w w w w w 8 N ",
"4 x x x x x x x x x x x x x x x x x x x x x x x x x x x x x x x x x x 4 ",
"* f f f f f f f f f f f f f f f f f f f f f f f f f f f f f f f f f s - ",
"* f f f s f s s f s f f f f s f f f s f f s f f f s f s s f s f s f f - ",
"* s s s f f s f s f s f f s f s s f s f s f f s s f f s f f s f s f s % ",
"* s s s s s s s s s s s s s s s s s f f s s s f s s s f s s s s s s s $ ",
"$ s s s s s s s s s s s s s s s V E ! V s s i s s s s i s s s s s s s $ ",
"$ s s i s p s s i s s i s i m &.<.<.<.<.$.m s i s i s s i i s s s i s $ ",
"$ i s i s p s i s s i s i H ,.<.<.<.<.<.<.>.B i i s s i s s s i s i s $ ",
"$ i i s i i i s i i i i M >.,.,.>.<.>.<.<.<.,.V i i i s i i s i i s i $ ",
"$ i i i i s i i s i i k *.,.,.,.,.>.,.,.>.,.,.*.k i i i i i i i i i i + ",
"+ i i i i i i i i i i [ >.,.>.,.,.>.=.,.>.>.>.>.{ i i i i i i i i i u $ ",
"$ i i i u i i i u i G :.>.>.:.>.;./ Z :.{ >.>.:.>.G i i i i i i i i u $ ",
"+ u i u u u u i u h &.:.:.:.:.o.C = [ } Z :.} ;.:.-.d 1 i 1 u u i u u $ ",
"+ u u u u u u u u E :.;.;.@.T 6 > c ;.R q :.D T ;.:.E i u u u u u u u + ",
"+ u u u u u u u z ;.;.#.Y 7 : > 2 } ;.t < -.} < ] ;.-.l u u u u u u > + ",
"+ u > u > u u > / -.-.C : > u u E ;.%.< > O.-.l t -.-.Q > u u > u u > + ",
"+ > u u u u > l -.-.=.9 > u > F =.=.W > 1 } -.A , #.-.=.l > > u > > u + ",
"+ > u 1 > > > W =.=.o.> > > B =.=.=.t > u { -.W 1 [ =.=.E u u > u > > + ",
"O > > > > > d O.=.=.} > > P =.=.=.{ , > > } =.} > _ =.=.O.a > > u u & + ",
"+ > > > > > n =.=.#.o.g _ %.%.%.%.C > > > o.=.#.1 { =.=.%.n 1 > > > > + ",
"O > : > : > U %.#.=.#.O.%.%.%.%.` : > : 3 %.#.=.j #.#.#.#.L > > > > & + ",
"O > > : : > W #.#.#.#.#.#.#.@.@.w > : > w #.#.#.J #.#.#.#.W : > & > > O ",
"O : : > > > W #.#.@.#.#.#.#.@.K : : > : G @.#.#.o.#.@.#.#.W > : > > & O ",
"O : : : : : S +.@.@.@.@.@.@.~ ; : : : & ` @.@.@.@.@.@.@.@.J : : > & > O ",
"O : : : : : 6 ..+.@.+.+.+.@.C , : : : 0 +.@.+.+.@.+.+.@.X.6 : : & > & + ",
"O : : : : : : t ..+.+.+.+.+.+.] I F B ~ +.+.+.+.+.+.+...b % : : & & & O ",
"o : & : : : : * e ^ ..+.+.+.+.X.X.+.+.X.+.+.+.+.X.X.( r $ = : : & & & o ",
"O & & & % & & & & # r P ) '  ...X.X.X.X...| ' ) I r + % & & & : & & & O ",
"o & & & = & & & & & & $ @ 5 8 r v v v v e 7 5 O $ % & & & & & & & & & o ",
"o & & & & & & & % & % & & % % % % % % % % % % & & % & & & & & & % % % o ",
"o % % & % & % % & % % % & & % % % % & % & & % & % & % % % % & % % % % o ",
"o % % % % % % % % % % % % % % % % % % % % % % % % % % % % % % % % % % o ",
"o % % % % % % $ % % % % % % % % % % % % % % % % % % % % % % % % % % % o ",
". % % % % % % % % % % % % % + % % % % % % + % % % % % % + % % % % % % . ",
"X                                                                     X "
};
