/* XPM */
static char *distributor_logo_archlinux[] = {
/* columns rows colors chars-per-pixel */
"36 36 225 2 ",
"   c #031725",
".  c #041825",
"X  c #0E4E7B",
"o  c #0E507B",
"O  c #3A5465",
"+  c #3C5567",
"@  c #0D6097",
"#  c #0E6198",
"$  c #0E6299",
"%  c #0E639A",
"&  c #0E649B",
"*  c #0E669D",
"=  c #0E679E",
"-  c #0F679F",
";  c #0F69A0",
":  c #0F6AA2",
">  c #0F6BA2",
",  c #0F6CA3",
"<  c #0F6EA5",
"1  c #0F6FA6",
"2  c #0F6FA7",
"3  c #0F6DA8",
"4  c #136DA5",
"5  c #176DA4",
"6  c #156EA6",
"7  c #176EA6",
"8  c #106EA8",
"9  c #126EA8",
"0  c #0F71A8",
"q  c #0F72AA",
"w  c #0F74AA",
"e  c #0F74AC",
"r  c #1075AD",
"t  c #1077AE",
"y  c #1A75AB",
"u  c #1B75AB",
"i  c #1078AF",
"p  c #1079B0",
"a  c #107AB2",
"s  c #107CB3",
"d  c #117CB4",
"f  c #117DB5",
"g  c #117FB7",
"h  c #1A7EB7",
"j  c #1D7FB7",
"k  c #1075B9",
"l  c #1077BB",
"z  c #1179BA",
"x  c #117ABA",
"c  c #127ABB",
"v  c #1178BC",
"b  c #1179BC",
"n  c #117ABC",
"m  c #117BBD",
"M  c #1179BE",
"N  c #117ABE",
"B  c #117BBF",
"V  c #127CBE",
"C  c #2E7AA9",
"Z  c #117CC0",
"A  c #117EC2",
"S  c #117FC2",
"D  c #117FC3",
"F  c #1180B7",
"G  c #1181B8",
"H  c #1182BA",
"J  c #1283BB",
"K  c #2486B6",
"L  c #2B84BD",
"P  c #2B85BD",
"I  c #3B90B9",
"U  c #4889B3",
"Y  c #4F8EB7",
"T  c #5291B8",
"R  c #1280C5",
"E  c #1282C6",
"W  c #1882C6",
"Q  c #1983C7",
"!  c #1E84C6",
"~  c #1E85C7",
"^  c #1283C8",
"/  c #1383C8",
"(  c #1285C9",
")  c #1286CA",
"_  c #1288CC",
"`  c #1389CD",
"'  c #138ACF",
"]  c #138CD0",
"[  c #138DD2",
"{  c #138FD3",
"}  c #1390D5",
"|  c #1491D6",
" . c #1493D7",
".. c #1494D9",
"X. c #1496DA",
"o. c #1497DC",
"O. c #1499DD",
"+. c #159ADF",
"@. c #1D98D8",
"#. c #3C8CC1",
"$. c #2696D6",
"%. c #2995D3",
"&. c #2598D8",
"*. c #3A97D0",
"=. c #3698D2",
"-. c #329BD7",
";. c #3C9CD5",
":. c #339ED9",
">. c #34A0DB",
",. c #31A2DE",
"<. c #159BE0",
"1. c #159DE2",
"2. c #159EE3",
"3. c #1B9CE0",
"4. c #15A0E4",
"5. c #15A1E6",
"6. c #16A2E7",
"7. c #26A3E3",
"8. c #38B1EC",
"9. c #3BB2EC",
"0. c #4794C0",
"q. c #499CC4",
"w. c #5398C2",
"e. c #569BC7",
"r. c #5A9FC5",
"t. c #469CD2",
"y. c #459ED3",
"u. c #4A9DD1",
"i. c #649DC3",
"p. c #5FA0C8",
"a. c #45A9DD",
"s. c #54A2D2",
"d. c #64A2C0",
"f. c #66A3C1",
"g. c #69A6CD",
"h. c #6BA7CC",
"j. c #75ACCC",
"k. c #65A9D3",
"l. c #7DAFD0",
"z. c #62B4DF",
"x. c #4CADE0",
"c. c #79BDE2",
"v. c #7EC0E3",
"b. c #86B5D4",
"n. c #88B6D4",
"m. c #8BB9D6",
"M. c #83BCDD",
"N. c #80BDDF",
"B. c #84BCDD",
"V. c #91BEDC",
"C. c #90BFDD",
"Z. c #8EBFE0",
"A. c #8BC0DF",
"S. c #98C0DB",
"D. c #87C0E0",
"F. c #90C0E1",
"G. c #91C0E1",
"H. c #92C0E1",
"J. c #93C4E1",
"K. c #96C5E1",
"L. c #97C6E2",
"P. c #98C4E3",
"I. c #99C6E2",
"U. c #9AC7E6",
"Y. c #9FC9E3",
"T. c #9AC8E7",
"R. c #A0CCE4",
"E. c #A6CDE7",
"W. c #A7CFE6",
"Q. c #AFD4ED",
"!. c #B2D6ED",
"~. c #B2D5EE",
"^. c #B2D6EF",
"/. c #B4D7EF",
"(. c #BCDAEB",
"). c #BADAED",
"_. c #BBD9EF",
"`. c #B1D7F1",
"'. c #B2D8F2",
"]. c #BADDF5",
"[. c #BCDEF6",
"{. c #BDDEF6",
"}. c #BEE0F7",
"|. c #C2DBEC",
" X c #C0DDF2",
".X c #CCE4EF",
"XX c #CCE3F3",
"oX c #C9E5F7",
"OX c #CFE5F4",
"+X c #C5E3F9",
"@X c #C6E5FA",
"#X c #CAE5F8",
"$X c #C9E6FA",
"%X c #CBE7FA",
"&X c #CCE8FA",
"*X c #CEE8FA",
"=X c #D0E7F7",
"-X c #D4E9F7",
";X c #D6EAF6",
":X c #DAEBF4",
">X c #D0E7F9",
",X c #D2E9F9",
"<X c #D0E9FB",
"1X c #D3E9FA",
"2X c #D2EAFB",
"3X c #D4EAFA",
"4X c #D5EBFA",
"5X c #D5EBFB",
"6X c #D7ECFB",
"7X c #D9ECFA",
"8X c #D9EDFB",
"9X c #DEEFFA",
"0X c #DCEFFC",
"qX c #DEF0FC",
"wX c #E1F1FA",
"eX c #E0F1FB",
"rX c #E6F3FB",
"tX c #E0F0FC",
"yX c #E1F1FC",
"uX c #E3F2FC",
"iX c #E5F3FC",
"pX c #E8F4FD",
"aX c #EAF5FD",
"sX c #ECF6FD",
"dX c #EFF8FD",
/* pixels */
"d.I q.q.q.q.q.q.q.q.q.q.q.q.q.q.q.q.q.q.q.q.q.q.q.q.q.q.q.q.q.q.q.q.I f.",
"K 9.8.8.8.8.8.8.8.8.8.8.8.8.8.8.8.8.8.8.8.8.8.8.8.8.8.8.8.8.8.8.8.8.9.K ",
"J 6.6.6.6.6.6.6.6.6.6.6.6.6.6.6.6.6.6.6.6.6.6.6.6.6.6.6.6.6.6.6.6.6.6.J ",
"H 5.5.5.5.5.5.5.5.5.5.5.5.5.5.5.5.5.5.5.5.5.5.5.5.5.5.5.5.5.5.5.5.5.5.H ",
"G 4.4.4.4.4.4.4.4.4.4.4.4.4.4.4.4.4.4.4.4.4.4.4.4.4.4.4.4.4.4.4.4.4.4.G ",
"F 2.2.2.2.2.2.2.2.2.2.2.2.2.2.2.2.2.2.2.2.2.2.2.2.2.2.2.2.2.2.2.2.2.2.F ",
"g 1.1.1.1.1.1.1.1.1.1.1.1.1.1.1.1.7.7.1.1.1.1.1.1.1.1.1.1.1.1.1.1.1.1.g ",
"f <.<.<.<.<.<.<.<.<.<.<.<.<.<.<.<.c.v.<.<.<.<.<.<.<.<.<.<.<.<.<.<.<.<.f ",
"d +.+.+.+.+.+.+.+.+.+.+.+.+.+.+.+..X:X3.+.+.+.+.+.+.+.+.+.+.+.+.+.+.+.d ",
"s O.O.O.O.O.O.O.O.O.O.O.O.O.O.O.x.dXdXz.O.O.O.O.O.O.O.O.O.O.O.O.O.O.O.s ",
"a o.o.o.o.o.o.o.o.o.o.o.o.o.o.o.W.sXsX(.o.o.o.o.o.o.o.o.o.o.o.o.o.o.o.a ",
"p X.X.X.X.X.X.X.X.X.X.X.X.X.X.,.rXaXaXaXa.X.X.X.X.X.X.X.X.X.X.X.X.X.X.p ",
"i ............................D.pXpXpXpXR.............................i ",
"t  . . . . . . . . . . . . .@.r.OXiXiXiXwX>. . . . . . . . . . . . . .t ",
"r | | | | | | | | | | | | | N.).j.XXuXuXuXL.| | | | | | | | | | | | | r ",
"e } } } } } } } } } } } } &.;XyXeX|.tXyXyX9X:.} } } } } } } } } } } } e ",
"w { { { { { { { { { { { { M.qXqXqXqXqXqXqXqXJ.{ { { { { { { { { { { { w ",
"q [ [ [ [ [ [ [ [ [ [ [ $.-X0X0X0X0X0X0X0X0X7X-.[ [ [ [ [ [ [ [ [ [ [ q ",
"0 ] ] ] ] ] ] ] ] ] ] ] B.8X8X8X8X8X8X8X8X8X8XK.] ] ] ] ] ] ] ] ] ] ] 0 ",
"2 ' ' ' ' ' ' ' ' ' ' %.=X6X6X6X1X!.~.,X6X6X6X4X;.' ' ' ' ' ' ' ' ' ' 2 ",
"1 ` ` ` ` ` ` ` ` ` ` A.5X5X5X5Xm.u y b.3X5X5X5XY.` ` ` ` ` ` ` ` ` ` 1 ",
"< _ _ _ _ _ _ _ _ _ =.>X2X2X2X Xj _ _ h _.2X2X2X2Xy._ _ _ _ _ _ _ _ _ < ",
", ) ) ) ) ) ) ) ) ) I.<X<X<X<Xn.( ) ) ) l.<X<X*X#XE.) ) ) ) ) ) ) ) ) , ",
"> ( ( ( ( ( ( ( ( t.*X*X*X*X*Xh.( ( ( ( p.*X*XoXS.V.u.( ( ( ( ( ( ( ( > ",
": ^ ^ ^ ^ ^ ^ ^ / E.%X%X%X%X%Xg.^ ^ ^ ^ e.%X%X%X&XC.#.^ ^ ^ ^ ^ ^ ^ ^ : ",
"; E E E E E E E s.$X$X$X+X`.P.w.E E E E 0.P.'.+X$X$X/.*.E E E E E E E ; ",
"- R R R R R R W Q.@X[.U.i.C 3 c R R R R V 8 C i.T.}.@X^.Q R R R R R R - ",
"= D D D D D D k.].G.T 6 x S D D D D D D D D S x 4 U H.{.k.D D D D D D = ",
"* A A A A A ! Z.Y 9 n A A A A A A A A A A A A A A m 9 Y F.~ A A A A A * ",
"& Z Z Z Z Z P 5 z Z Z Z Z Z Z Z Z Z Z Z Z Z Z Z Z Z Z b 7 L Z Z Z Z Z & ",
"% B B B B B N B B B B B B B B B B B B B B B B B B B B B B N B B B B B % ",
"$ M M M M M M M M M M M M M M M M M M M M M M M M M M M M M M M M M M $ ",
"# v v v v v v v v v v v v v v v v v v v v v v v v v v v v v v v v v v # ",
"@ l l l l l l l l l l l l l l l l l l l l l l l l l l l l l l l l l l @ ",
"o k k k k k k k k k k k k k k k k k k k k k k k k k k k k k k k k k k X ",
"O .                                                                 . + "
};
