/* XPM */
static char *distributor_logo_xubuntu[] = {
/* columns rows colors chars-per-pixel */
"36 36 111 2 ",
"   c #020E2B",
".  c #3A4A6E",
"X  c #0C338F",
"o  c #0B3CAE",
"O  c #0E3FB0",
"+  c #1244B4",
"@  c #1649B7",
"#  c #1244BA",
"$  c #174BB8",
"%  c #1A4EBA",
"&  c #1D52BC",
"*  c #2352B7",
"=  c #2354BC",
"-  c #2D56B8",
";  c #2F5DB8",
":  c #325AB9",
">  c #4067BF",
",  c #466DBA",
"<  c #134AC6",
"1  c #144CCC",
"2  c #1852CE",
"3  c #0C49D7",
"4  c #0E4BD8",
"5  c #114CD3",
"6  c #114EDA",
"7  c #1A54D6",
"8  c #1553DD",
"9  c #1A56D9",
"0  c #1A58DF",
"q  c #2053C1",
"w  c #295BCA",
"e  c #2058D7",
"r  c #3A6ACF",
"t  c #3C6CD1",
"y  c #3C6FDC",
"u  c #1756E0",
"i  c #1857E0",
"p  c #1B5BE3",
"a  c #2161E7",
"s  c #2465EA",
"d  c #2768EB",
"f  c #2C69E8",
"g  c #3369E3",
"h  c #3F73E5",
"j  c #456BC2",
"k  c #537AC5",
"l  c #5277C9",
"z  c #577BCA",
"x  c #5B7DCC",
"c  c #4270D2",
"v  c #4577E5",
"b  c #4C7AE1",
"n  c #477FEF",
"m  c #5E80CF",
"M  c #5C80D0",
"N  c #5581DC",
"B  c #6E8AC2",
"V  c #6385CD",
"C  c #6285D4",
"Z  c #6E8ED3",
"A  c #6B8FDB",
"S  c #6F91D7",
"D  c #7390D4",
"F  c #7A97D3",
"G  c #7694D9",
"H  c #7896DA",
"J  c #7B98DD",
"K  c #4A81EF",
"L  c #5B87E7",
"P  c #6090EF",
"I  c #6A91E9",
"U  c #829FDD",
"Y  c #8FA8DD",
"T  c #9AB0DF",
"R  c #8CABEB",
"E  c #95AFE5",
"W  c #9AB2E5",
"Q  c #96B4ED",
"!  c #95B1F0",
"~  c #9EB8F2",
"^  c #A0B5E2",
"/  c #A2B8E5",
"(  c #A5BBEE",
")  c #A8BCE9",
"_  c #A3BBF4",
"`  c #ABC1EC",
"'  c #B1C3EB",
"]  c #B6C9EF",
"[  c #B9C9EA",
"{  c #A9C0F8",
"}  c #B6C9F4",
"|  c #BACBF4",
" . c #B2C7F9",
".. c #B7CCFB",
"X. c #BBCEFA",
"o. c #C3D1EE",
"O. c #C2D1F4",
"+. c #C8D7F6",
"@. c #CDD9F4",
"#. c #C3D4FC",
"$. c #CBD9FD",
"%. c #D1DEFD",
"&. c #D6E1F6",
"*. c #DDE6F7",
"=. c #D6E2FD",
"-. c #DBE5FD",
";. c #DFE8FD",
":. c #E3ECFD",
">. c #E9EFFC",
",. c #ECF1FD",
"<. c #F2F6FE",
/* pixels */
"B , l l k k k k k k k k k k k k k k k k M , M k k k M k k k k k l k , B ",
"; K n n K K n n K K K n n n n K n n n n K K n n n n n n n n n n K n K ; ",
"= d d d d d s d d d d d s d d d d d d d d d d d s s d d d d s s d d f < ",
"& d d d s d d s s d d s s d s d d d d s s d s d s s d d d d s s d d d = ",
"& s s s s s s s s s s s s s s d s s d d d d s s s s s s s s s s s s d q ",
"& s s s s s s s s s s s s s s s s s d d d d s s s s s s s s s s s s s % ",
"& a a s s a s s s s s a s s d P J Q Q J P d s a s a a s a s s s s a s & ",
"& s s a s s a s a s a a n ` >.<.<.<.<.<.<.:._ n a s s a s s s s s a s % ",
"% a a a a a a a a a s Q ,.<.<.<.<.<.<.<.<.<.<.>.R s s a a s a a a a a % ",
"% a a a a a a a a d ] ,.<.,.,.,.,.,.,.,.,.<.,.<.<.[ f a a a a a a a a % ",
"$ a a a a a a a s ] ,.,.,.,.,.,.,.,.,.,.,.@.,.,.,.>.] s a a a a a a a % ",
"% p a a a p a a R >.>.>.>.>.>.| +.,.,.>.>.F *.,./ &.,.R p p a p a p a % ",
"$ a a p a p p v *.>.>.;.O.;.[ & r >.>.>.>.N *.| N :.:.:.h p a p a p a $ ",
"$ p p a a p a W :.:.:.T = Y T p e o.:.:.>.y *.m E :.:.:.E a p p p a p $ ",
"$ p p p p p a =.;.:.;.A a w W p 0 ` :.:.-.N ` y *.*.:.:.&.p p p p p p $ ",
"$ p p p p p b ;.;.;.;.Y p p m p p H } #.&.W S ` ;.*.:.*.*.K a p p p p @ ",
"@ p p p p p A -.-.-.-.^ i p 7 p 0 2 % > m Y ( =.-.-.-.-.-.A p p p p p @ ",
"# p i i i i G :.-.-.-.Z p p i p 0 p p 0 9 2 = D $.-.-.-.-.H p 0 i i i @ ",
"@ i p p p p S %.%.-.%.c p i p i i p p p p p p 7 V -.=.=.=.G p i p p i @ ",
"@ i i u p u C %.=.%.%.e p i i i i u 0 0 i i i i 7 $.=.=.=.M p i i p i @ ",
"+ 0 8 i i i r %.%.%.' i i i i i i i u u u u 0 0 v %.%.=.=.t i i i i i + ",
"# 0 u i u u 7 O.%.%.) i u i u u u u u u u u 0 L +.%.%.%.} 9 i i u i u + ",
"+ u u 8 u u u D $.$.O.u 8 i i i u 0 8 u u h ~ $.$.$.$.$.D i 8 i i u 8 + ",
"+ 8 0 8 8 8 8 w | $.$.b 0 8 8 8 0 8 8 h R $.$.$.$.$.$.| w 8 8 8 8 8 8 + ",
"+ 8 8 8 u u 8 8 x #.$.} v u u 8 g I _ $.#.$.#.$.$.$.#.x 8 8 8 8 u 8 u + ",
"O 8 8 8 6 8 8 6 1 U #.#.$.X._ | $.#.#.#.#.$.#.#.#.#.J 5 8 8 8 8 6 u 6 + ",
"O 8 6 8 8 8 8 6 6 1 G X.#.#.#.#.#.#.#.#.#.#.#.#.X.J < 8 6 8 8 8 u 6 6 + ",
"+ 6 6 8 6 6 8 6 6 6 < l ~ X.#.X.X.#.#.X.#.#.X._ z < 6 8 8 6 8 6 6 8 6 O ",
"O 6 6 6 6 6 8 6 6 6 6 5 = x ! _  .X... .{ ! C * 5 8 6 6 6 6 6 8 6 6 6 O ",
"O 6 6 6 6 6 6 6 6 6 6 6 6 5 # - j x l j : # 1 6 6 6 6 6 6 6 6 4 6 6 6 O ",
"O 6 6 6 6 6 6 6 6 6 4 6 6 6 6 6 5 5 5 6 5 4 6 6 4 6 6 6 4 6 6 6 6 6 6 O ",
"O 6 4 6 3 6 6 6 4 6 4 6 6 6 4 4 4 4 6 4 6 4 4 4 6 4 4 6 4 6 4 4 4 4 6 O ",
"o 3 4 4 6 3 6 6 3 4 3 6 3 6 3 6 6 3 6 6 3 4 6 3 6 4 4 4 6 4 4 6 3 4 4 o ",
"o 3 3 3 3 4 3 3 3 3 6 3 3 3 3 3 3 3 3 3 3 3 3 4 3 3 4 3 3 3 3 3 3 4 3 o ",
"X 3 3 3 3 3 3 3 3 3 3 3 3 3 3 3 3 3 3 3 3 3 3 3 3 3 3 3 3 3 3 3 3 3 3 X ",
".                                                                     . "
};
