/* XPM */
static char *nm_device_wireless[] = {
/* columns rows colors chars-per-pixel */
"38 38 155 2 ",
"   c gray30",
".  c #4E4E4E",
"X  c gray31",
"o  c #505050",
"O  c #515151",
"+  c gray32",
"@  c #535353",
"#  c gray33",
"$  c #555555",
"%  c #565656",
"&  c gray34",
"*  c #585858",
"=  c #5A5A5A",
"-  c #5B5B5B",
";  c gray36",
":  c #5D5D5D",
">  c gray37",
",  c #5F5F5F",
"<  c #606060",
"1  c gray38",
"2  c #626262",
"3  c gray39",
"4  c #646464",
"5  c #656565",
"6  c gray40",
"7  c #676767",
"8  c #686868",
"9  c DimGray",
"0  c #6A6A6A",
"q  c gray42",
"w  c #6C6C6C",
"e  c gray43",
"r  c #6F6F6F",
"t  c gray44",
"y  c #727272",
"u  c gray45",
"i  c #747474",
"p  c gray46",
"a  c #777777",
"s  c gray47",
"d  c #797979",
"f  c gray48",
"g  c #7B7B7B",
"h  c #7C7C7C",
"j  c gray49",
"k  c #7E7E7E",
"l  c gray50",
"z  c #808080",
"x  c #818181",
"c  c gray51",
"v  c #838383",
"b  c #848484",
"n  c gray52",
"m  c #868686",
"M  c gray53",
"N  c #888888",
"B  c #898989",
"V  c gray54",
"C  c #8B8B8B",
"Z  c gray55",
"A  c #8D8D8D",
"S  c #8E8E8E",
"D  c gray56",
"F  c #909090",
"G  c gray57",
"H  c #929292",
"J  c gray58",
"K  c #959595",
"L  c gray59",
"P  c #989898",
"I  c gray60",
"U  c #9A9A9A",
"Y  c gray61",
"T  c #9D9D9D",
"R  c gray62",
"E  c #9F9F9F",
"W  c #A0A0A0",
"Q  c gray63",
"!  c #A2A2A2",
"~  c gray64",
"^  c #A4A4A4",
"/  c #A5A5A5",
"(  c gray65",
")  c #A7A7A7",
"_  c gray66",
"`  c #A9A9A9",
"'  c #AAAAAA",
"]  c gray67",
"[  c #ACACAC",
"{  c gray68",
"}  c #AEAEAE",
"|  c #AFAFAF",
" . c gray69",
".. c #B1B1B1",
"X. c #B2B2B2",
"o. c gray70",
"O. c #B4B4B4",
"+. c gray71",
"@. c #B6B6B6",
"#. c #B7B7B7",
"$. c gray72",
"%. c #B9B9B9",
"&. c gray73",
"*. c #BBBBBB",
"=. c gray74",
"-. c gray",
";. c gray75",
":. c #C0C0C0",
">. c gray76",
",. c #C3C3C3",
"<. c #C5C5C5",
"1. c #C6C6C6",
"2. c #C8C8C8",
"3. c #CACACA",
"4. c #CBCBCB",
"5. c gray80",
"6. c #CDCDCD",
"7. c #CECECE",
"8. c gray81",
"9. c gray82",
"0. c LightGray",
"q. c gray83",
"w. c #D5D5D5",
"e. c gray84",
"r. c #D8D8D8",
"t. c gray86",
"y. c gainsboro",
"u. c #DDDDDD",
"i. c gray87",
"p. c #DFDFDF",
"a. c #E1E1E1",
"s. c gray89",
"d. c gray90",
"f. c #E6E6E6",
"g. c #E7E7E7",
"h. c gray91",
"j. c #E9E9E9",
"k. c #EAEAEA",
"l. c #ECECEC",
"z. c #EEEEEE",
"x. c #EFEFEF",
"c. c gray94",
"v. c #F1F1F1",
"b. c #F3F3F3",
"n. c gray96",
"m. c #F6F6F6",
"M. c gray97",
"N. c #F8F8F8",
"B. c #F9F9F9",
"V. c gray98",
"C. c #FBFBFB",
"Z. c gray99",
"A. c #FDFDFD",
"S. c #FEFEFE",
"D. c white",
/* pixels */
"D.D.D.D.D.D.D.D.D.D.D.D.D.D.D.D.D.D.D.D.D.D.D.D.D.D.D.D.D.D.D.D.D.D.D.D.D.D.",
"D.D.D.D.D.D.D.D.D.D.D.D.D.S.c.d.i.y.u.s.x.A.D.D.D.D.D.D.D.D.D.D.D.D.D.D.D.D.",
"D.D.D.D.D.D.D.D.D.D.S.h.5.#.o.o.o.o.o.o.o.+.2.s.A.D.D.D.D.D.D.D.D.D.D.D.D.D.",
"D.D.D.D.D.D.D.D.D.f.;.o.o.o.o.o.o.o.o.o.o.o.o.o.&.p.S.D.D.D.D.D.D.D.D.D.D.D.",
"D.D.D.D.D.D.D.C.3.o.o.o.o.o.o.o.o.o.o.o.o.o.o.o.o.o.,.m.D.D.D.D.D.D.D.D.D.D.",
"D.D.D.D.D.D.n.:.o.o.o.o.o.` N u 5 : 2 q x U o.o.o.o.o.%.l.D.D.D.D.D.D.D.D.D.",
"D.D.D.D.D.b.%.o.o.o.o.~ q .     & 1 - O     : V ..o.o.o.+.j.D.D.D.D.D.D.D.D.",
"D.D.D.D.V.-.o.o.o.X.h X   r H | o.o.o...R l $   4 / o.o.o.@.c.D.D.D.D.D.D.D.",
"D.D.D.D.2.o.o.o.} w   4 E o.U d 8 < 2 y V { | j   @ T o.o.o.=.C.D.D.D.D.D.D.",
"D.D.D.a.o.o.o.o.w   i ..U 1     # > =     @ x ..I + # E o.o.o.w.D.D.D.D.D.D.",
"D.D.A.*.o.o.o.z   i o.M . o j ~ o.o.o.{ S ,   4 [ U o -  .o.o.O.m.D.D.D.D.D.",
"D.D.a.o.o.o./ X 1  .B   , ( X.L a 0 t n ] ..j   3 | M   j o.o.o.w.D.D.D.D.D.",
"D.D.<.o.o.o.u   Y W X ; { _ 4     O X   o B o.z   g o.2 o [ o.o.&.S.D.D.D.D.",
"D.B.O.o.o.} X 8 o.w . Q ] - . f ( o.| J :   m o.5 . ( F   M o.o.o.z.D.D.D.D.",
"D.g.o.o.o.H   B _ . t o.u   Z o.o.o.o.o.{ , X ^ I   l | @ 8 o.o.o.t.D.D.D.D.",
"D.t.o.o.o.g   / C   H [ X 0 o.o.n ; 0 ) o.Y   g X.& 3 o.7 $ o.o.o.8.D.D.D.D.",
"D.0.o.o.o.t   ..h   ) K   Z o.T       q o.o.* 2 o.q O o.s   ] o.o.1.D.D.D.D.",
"D.8.o.o.o.9 $ o.p   { S   K o.F       : o.o.1 ; o.t . o.g   _ o.o.>.D.D.D.D.",
"D.9.o.o.o.r X o.j   ) P   M o.{ =     B o.X.# 6 o.0 O o.d   ` o.o.<.D.D.D.D.",
"D.e.o.o.o.s   ` Z   G } + 1 X.o./   r o.o.G   c o.% 3 o.0 + o.o.o.3.D.D.D.D.",
"D.a.o.o.o.S   D ` . e o.l   j o.]   s o.} & $ ' L   z X.$ 3 o.o.o.w.D.D.D.D.",
"D.v.o.o.o.]   r o.e . R ..5 v o.]   s o.o.A G X.2 X ) L   x o.o.o.d.D.D.D.D.",
"D.S.&.o.o.o.q . ~ ~ O - [ ..o.o.]   s o.o.o.o.n   k o.q . _ o.o.O.N.D.D.D.D.",
"D.D.0.o.o.o.T   w X.A   v o.o.o.]   s o.o.o.o._ i  .H   u o.o.o.2.D.D.D.D.D.",
"D.D.b.O.o.o.o.i   b o.L X.o.o.o.]   s o.o.o.o.o.o.[ & # ' o.o.o.g.D.D.D.D.D.",
"D.D.D.7.o.o.o. .< . ! o.o.o.o.o.]   s o.o.o.o.o.o.X.c G o.o.o.>.D.D.D.D.D.D.",
"D.D.D.M.#.o.o.o.) V o.o.o.o.o.o.]   s o.o.o.o.o.o.o.o.o.o.o.O.z.D.D.D.D.D.D.",
"D.D.D.D.j.O.o.o.o.o.o.o.o.o.o.o.]   s o.o.o.o.o.o.o.o.o.o.o.r.D.D.D.D.D.D.D.",
"D.D.D.D.D.t.o.o.o.o.o.o.o.o.o.o.]   s o.o.o.o.o.o.o.o.o.o.4.S.D.D.D.D.D.D.D.",
"D.D.D.D.D.D.q.o.o.o.o.o.o.o.o.o.]   s o.o.o.o.o.o.o.o.o.3.Z.D.D.D.D.D.D.D.D.",
"D.D.D.D.D.D.D.i.+.o.o.o.o.o.o.o.| V Y o.o.o.o.o.o.o.o.w.S.D.D.D.D.D.D.D.D.D.",
"D.D.D.D.D.D.D.D.c.,.o.o.o.o.o.o.o.o.o.o.o.o.o.o.o.-.k.D.D.D.D.D.D.D.D.D.D.D.",
"D.D.D.D.D.D.D.D.D.D.g.<.o.o.o.o.o.o.o.o.o.o.o.:.a.A.D.D.D.D.D.D.D.D.D.D.D.D.",
"D.D.D.D.D.D.D.D.D.D.D.D.n.p.6.>.&.$.%.:.4.y.v.D.D.D.D.D.D.D.D.D.D.D.D.D.D.D.",
"D.D.D.D.D.D.D.D.D.D.D.D.D.D.D.D.D.D.D.D.D.D.D.D.D.D.D.D.D.D.D.D.D.D.D.D.D.D.",
"D.D.D.D.D.D.D.D.D.D.D.D.D.D.D.D.D.D.D.D.D.D.D.D.D.D.D.D.D.D.D.D.D.D.D.D.D.D.",
"D.D.D.D.D.D.D.D.D.D.D.D.D.D.D.D.D.D.D.D.D.D.D.D.D.D.D.D.D.D.D.D.D.D.D.D.D.D.",
"D.D.D.D.D.D.D.D.D.D.D.D.D.D.D.D.D.D.D.D.D.D.D.D.D.D.D.D.D.D.D.D.D.D.D.D.D.D."
};
