/* XPM */
static char *rpm[] = {
/* columns rows colors chars-per-pixel */
"36 36 115 2 ",
"   c #090A0D",
".  c #2B0707",
"X  c #270A0A",
"o  c #2C0808",
"O  c #20222C",
"+  c #3F2B2F",
"@  c #262C39",
"#  c #292E3D",
"$  c #6E3F3F",
"%  c #2D3344",
"&  c #303649",
"*  c #33394D",
"=  c #353C50",
"-  c #443443",
";  c #493748",
":  c #4C3A4B",
">  c #921B1C",
",  c #B21F20",
"<  c #B42324",
"1  c #BD2425",
"2  c #B52728",
"3  c #B72A2B",
"4  c #B82E2F",
"5  c #A32D30",
"6  c #B52F30",
"7  c #BD2F30",
"8  c #AA3536",
"9  c #B93131",
"0  c #B33C3D",
"q  c #BC3C3D",
"w  c #C62526",
"e  c #CC2425",
"r  c #D32425",
"t  c #DC2627",
"y  c #D62728",
"u  c #DC2728",
"i  c #D52D2E",
"p  c #DE2B2C",
"a  c #DB2F30",
"s  c #C83434",
"d  c #C33839",
"f  c #D53132",
"g  c #DC3132",
"h  c #D63C3D",
"j  c #DF3839",
"k  c #E02F30",
"l  c #E13334",
"z  c #E33738",
"x  c #E4393A",
"c  c #C43F40",
"v  c #B44344",
"b  c #B65152",
"n  c #BF7676",
"m  c #C54444",
"M  c #CC474A",
"N  c #C54C4D",
"B  c #CD4A4C",
"V  c #D64343",
"C  c #D64D4D",
"Z  c #D84A4B",
"A  c #C15E5F",
"S  c #D65555",
"D  c #D95152",
"F  c #E14343",
"G  c #E14748",
"H  c #E24B4C",
"J  c #E35656",
"K  c #E95757",
"L  c #E55E5E",
"P  c #E95B5C",
"I  c #E75F60",
"U  c #C66263",
"Y  c #D46565",
"T  c #D57273",
"R  c #D07D7E",
"E  c #E56666",
"W  c #E86F6F",
"Q  c #E57172",
"!  c #E97171",
"~  c #E97778",
"^  c #E4797A",
"/  c #EA7879",
"(  c #EB7F80",
")  c #D38585",
"_  c #D6898A",
"`  c #DD9393",
"'  c #E48687",
"]  c #E88384",
"[  c #EC8788",
"{  c #E38B8C",
"}  c #EE8F90",
"|  c #E09292",
" . c #E19D9D",
".. c #E99C9C",
"X. c #E3A3A3",
"o. c #E7ADAD",
"O. c #F2ACAC",
"+. c #E5B4B4",
"@. c #ECB4B4",
"#. c #E7B7B8",
"$. c #E7BCBC",
"%. c #ECBBBB",
"&. c #F2B3B4",
"*. c #F3BABA",
"=. c #EAC2C2",
"-. c #EFCBCB",
";. c #F5C6C6",
":. c #F5CCCC",
">. c #F5D1D1",
",. c #F8D6D6",
"<. c #F6D8D8",
"1. c #FADCDC",
"2. c #FAE4E4",
"3. c #FCEBEB",
"4. c #FDF1F1",
/* pixels */
"n b A A A A A A A A A A A A U b U U b U A A A A A A U b U U A A A A b R ",
"0 K K K K K K K K K K K K K K K P K K P K K K K K K K K P K K K K K K 0 ",
"6 x x x x x x x x x x x x x x x x x x x x x x x x x x x x x z x x x x 4 ",
"6 x x x x x x x x x x x x x x x x x x x x x x x x x x x x x x x x x x 4 ",
"4 z x z x x x x x x x x z x z z x x x x x z x x x x x x x z x x z z x 4 ",
"3 z z z x x z z z z z z z z z z z x z z z z z z z z z z z z z z z z z 3 ",
"3 x z z z z z z z z z z z z z z z I P x z x x z z z z z z z z z z z z 4 ",
"3 z z z l z z z z z z z x / ;.$.z =.=.x @.@.! x x l z l z z z z z z z 3 ",
"4 z z l x l x x x x l I >.4.4.$.z =.=.z =.4.4.>.I z z l z z z l z z z 3 ",
"3 z l z l z l l l l Q 3.4.4.3.+.g $.$.l +.3.4.4.3.] z l l z l z l z l 3 ",
"3 z l l z l l l g W 3.3.3.:._ N l $.$.l N _ ;.3.3.3.^ l z l l l l l z 3 ",
"3 l l z l l l l J 2.3.3.@.N f l l $.#.l l f q X.3.3.2.L l l l z z l l 3 ",
"1 l l l l l l l %.2.3.@.d g l l l #.#.l l l l s o.3.3.%.l l l l l l l 3 ",
"2 l l k l l l L 2.3.1.m l l a l l #.#.g l k l l m ,.2.2.E l l l k l l < ",
"2 l l l k l l  .2.2._ g l l l l l +.+.l l l l l g ) 2.2. .l l l l l l 2 ",
"3 l k l l k l >.2.1.B l l k k l l +.+.g l k k l l M 2.2.>.l k l l l l 2 ",
"2 k k l k k F 2.1.:.g k k k k k k %.#.l g k l k l a -.1.2.F k l k l p 2 ",
"2 l k k k k D 1.1.#.k l l k k k Y 1.1.E k g k k k k #.1.1.D l p k l l < ",
"< k k k k k D <.1.#.k k k k k k Y >.>.Y k k k k k k #.1.1.C k k k k l < ",
"2 k k k k k V <.<.-.k k k k k k i U U i k k k k k g :.<.,.h k k k k k 2 ",
"< k p k p k a @.*.*.F k k k p k k p p k k k k k k J ,.,.%.k p k k p k < ",
"< k k p k p p 7 9 9 i p p k k p p p p k p p k p p { ,.,._ k k p k k p < ",
"< k p k p k k k k g k p k p p k k k p g k k p k G >.>.:.N k p k p g g < ",
"< p p p p p p p p p p p p k p p p p p p p p p j @.>.>.` i p p p p p p < ",
"< p p p p p p p p p p p p p p p p p p p p p G @.:.:.&.c p p p p k p p < ",
"< p p p p p p p p p p p p p p p p p p p H [ :.:.:.&.T P J J H G G F x 5 ",
"< p p p p p u p p p p p u p p u p ' O.*.:.;.:.;.X.T } [ ( ~ ! E L J M - ",
", p u p u u p u u p u u p u u p p  .:.;.;.;.&.R 8 S [ ( ~ ! E I J B : % ",
"< u u p p p u p p u p p p u u p u | &.O...T v < w S ( ~ ! E I J M : = # ",
", p u u u u u u u u u u u p u u u q q 4 1 e w e w D ~ ! E I J B : * * % ",
", u p u u u u p u p u p u u p u u u u u y e e w e C ! E L J B ; * & & # ",
", u u u u u u t u u t u u u u u u u u y r e r e e Z E L J B ; & * & & @ ",
", u u u t t t t t t t t t t t t t t r r r r e e e V L J M - & & & & & @ ",
", u t u t t t t t t t t t t t t t t r r r r e e e j J M - & & % & % % @ ",
"> t t t t t t t t t t t t t t t t r t t r r e e r c M + % % % % % % % O ",
"$ . . . . . . . o o . . . o o o . . . . . . . . o X                   + "
};
