/* XPM */
static char *system_lock_screen[] = {
/* columns rows colors chars-per-pixel */
"36 36 147 2 ",
"   c #E97103",
".  c #E97204",
"X  c #E97307",
"o  c #E97408",
"O  c #EA7409",
"+  c #EA750A",
"@  c #EA750B",
"#  c #EA760C",
"$  c #EA770D",
"%  c #EA770E",
"&  c #EA780F",
"*  c #EA7810",
"=  c #EA7911",
"-  c #EA7912",
";  c #EB7C16",
":  c #EB7C17",
">  c #EB7D18",
",  c #EB7E1B",
"<  c #EB801E",
"1  c #EB8120",
"2  c #EC8324",
"3  c #EC8425",
"4  c #EC8426",
"5  c #EC8527",
"6  c #EC8629",
"7  c #ED882C",
"8  c #ED892D",
"9  c #ED892E",
"0  c #ED8B30",
"q  c #ED8D35",
"w  c #EE8F37",
"e  c #EE8F38",
"r  c #EE9039",
"t  c #EE903A",
"y  c #EE923E",
"u  c #EE933F",
"i  c #EF9543",
"p  c #EF9746",
"a  c #EF9A4B",
"s  c #EF9B4D",
"d  c #F09B4E",
"f  c #F09C4F",
"g  c #F09D51",
"h  c #F09E52",
"j  c #F09E53",
"k  c #F09F55",
"l  c #F0A056",
"z  c #F0A057",
"x  c #F0A158",
"c  c #F1A159",
"v  c #F1A25A",
"b  c #F1A45D",
"n  c #F1A55F",
"m  c #F1A763",
"M  c #F1A864",
"N  c #F2A865",
"B  c #F2A966",
"V  c #F2A967",
"C  c #F2AA68",
"Z  c #F2AA69",
"A  c #F2AB6B",
"S  c #F2AC6C",
"D  c #F2AD6D",
"F  c #F3AF71",
"G  c #F3AF72",
"H  c #F3B074",
"J  c #F3B277",
"K  c #F3B378",
"L  c #F3B379",
"P  c #F3B47B",
"I  c #F4B57C",
"U  c #F4B77F",
"Y  c #F4B780",
"T  c #F4B881",
"R  c #F4B982",
"E  c #F4BB85",
"W  c #F4BB86",
"Q  c #F5BB86",
"!  c #F5BC88",
"~  c #F5BD8A",
"^  c #F5BE8B",
"/  c #F5C08F",
"(  c #F5C191",
")  c #F6C292",
"_  c #F6C293",
"`  c #F6C496",
"'  c #F6C597",
"]  c #F6C598",
"[  c #F6C699",
"{  c #F6C69A",
"}  c #F6C79C",
"|  c #F6C99E",
" . c #F7C99F",
".. c #F7CAA0",
"X. c #F7CAA1",
"o. c #F7CBA2",
"O. c #F7CDA7",
"+. c #F7CFA9",
"@. c #F8D0AB",
"#. c #F8D1AD",
"$. c #F8D1AE",
"%. c #F8D2AF",
"&. c #F9D5B5",
"*. c #F9D6B7",
"=. c #F9D7B8",
"-. c #F9D7B9",
";. c #F9D9BB",
":. c #F9DABD",
">. c #F9DBBF",
",. c #F9DBC0",
"<. c #FADEC4",
"1. c #FADEC5",
"2. c #FAE0C8",
"3. c #FBE2CC",
"4. c #FBE3CD",
"5. c #FBE4D0",
"6. c #FBE5D1",
"7. c #FBE5D2",
"8. c #FBE6D3",
"9. c #FBE6D4",
"0. c #FBE8D5",
"q. c #FBE8D6",
"w. c #FCE9D8",
"e. c #FCECDC",
"r. c #FCECDD",
"t. c #FCEDDE",
"y. c #FCEEE0",
"u. c #FCEEE1",
"i. c #FDEFE3",
"p. c #FDF0E4",
"a. c #FDF2E7",
"s. c #FDF3E9",
"d. c #FDF4EC",
"f. c #FEF6EF",
"g. c #FEF7F0",
"h. c #FEF8F3",
"j. c #FEF9F4",
"k. c #FEF9F5",
"l. c #FEFAF6",
"z. c #FEFBF7",
"x. c #FEFCF9",
"c. c #FFFCFA",
"v. c #FFFDFB",
"b. c #FFFDFC",
"n. c #FFFEFD",
"m. c #FFFEFE",
"M. c white",
/* pixels */
"M.M.M.M.M.M.M.M.M.M.M.M.M.M.M.M.M.M.M.M.M.M.M.M.M.M.M.M.M.M.M.M.M.M.M.M.",
"M.M.M.M.M.M.M.M.M.M.M.M.M.M.m.t.,.%.@.;.w.c.M.M.M.M.M.M.M.M.M.M.M.M.M.M.",
"M.M.M.M.M.M.M.M.M.M.M.j. .g =             $ i ) s.M.M.M.M.M.M.M.M.M.M.M.",
"M.M.M.M.M.M.M.M.M.f.U -                         + V p.M.M.M.M.M.M.M.M.M.",
"M.M.M.M.M.M.M.M.$.,             @ 5 7 &             % ( m.M.M.M.M.M.M.M.",
"M.M.M.M.M.M.b.G             y &.z.M.M.n.1.c .           f h.M.M.M.M.M.M.",
"M.M.M.M.M.v.c           X _ M.M.M.M.M.M.M.M.*.-           w g.M.M.M.M.M.",
"M.M.M.M.M.N             { M.M.M.v.7.3.k.M.M.M.<.O           u x.M.M.M.M.",
"M.M.M.M.'             h M.M.M.] :     # L c.M.M.T             S M.M.M.M.",
"M.M.M.r.#             5.M.M.~             v M.M.h.*           . :.M.M.M.",
"M.M.M.j             4 M.M.a.@               >.M.M.l             7 b.M.M.",
"M.M.9..             h M.M.X.                F M.M.R               O.M.M.",
"M.M.A               B M.M.!                 z M.M.'               u M.M.",
"M.b.>               C M.M.W                 k M.M.[               . p.M.",
"M.4.                C M.M.W                 k M.M.[                  .M.",
"M.'                 C M.M.W                 k M.M.[                 D M.",
"M.H             3 q Q M.M.| q q q q q q q q J M.M.#.q 9             p M.",
"M.n             +.M.M.M.M.M.M.M.M.M.M.M.M.M.M.M.M.M.M.e.            0 M.",
"M.x             +.M.M.M.M.M.M.M.n.../ j.M.M.M.M.M.M.M.e.            6 M.",
"M.m             +.M.M.M.M.M.M.M.`     M M.M.M.M.M.M.M.e.            q M.",
"M.K             +.M.M.M.M.M.M.M.Y     s M.M.M.M.M.M.M.e.            a M.",
"M. .            +.M.M.M.M.M.M.M.s.0 ; 7.M.M.M.M.M.M.M.e.            G M.",
"M.0.            +.M.M.M.M.M.M.M.M.S r M.M.M.M.M.M.M.M.e.            @.M.",
"M.M.1           +.M.M.M.M.M.M.M.M.S r M.M.M.M.M.M.M.M.e.          o d.M.",
"M.M.P           +.M.M.M.M.M.M.M.M.S r M.M.M.M.M.M.M.M.e.          d M.M.",
"M.M.y.o         +.M.M.M.M.M.M.M.M.S r M.M.M.M.M.M.M.M.e.          ;.M.M.",
"M.M.M.Z         +.M.M.M.M.M.M.M.M.} I M.M.M.M.M.M.M.M.e.        y M.M.M.",
"M.M.M.d.:       +.M.M.M.M.M.M.M.M.M.M.M.M.M.M.M.M.M.M.e.      o 6.M.M.M.",
"M.M.M.M.&..     t z z z z z z z z z z z z z z z z z z a       ^ M.M.M.M.",
"M.M.M.M.M.E                                                 b m.M.M.M.M.",
"M.M.M.M.M.M.I                                             l x.M.M.M.M.M.",
"M.M.M.M.M.M.M.] +                                     . J b.M.M.M.M.M.M.",
"M.M.M.M.M.M.M.M.5.q                                 2 =.M.M.M.M.M.M.M.M.",
"M.M.M.M.M.M.M.M.M.n.o.8                         < / l.M.M.M.M.M.M.M.M.M.",
"M.M.M.M.M.M.M.M.M.M.M.M.2.J e @         o 8 D -.b.M.M.M.M.M.M.M.M.M.M.M.",
"M.M.M.M.M.M.M.M.M.M.M.M.M.M.M.m.i.q.8.u.c.M.M.M.M.M.M.M.M.M.M.M.M.M.M.M."
};
