/* XPM */
static char *text_x_source[] = {
/* columns rows colors chars-per-pixel */
"36 36 105 2 ",
"   c #090B0D",
".  c #032A0E",
"X  c #072710",
"o  c #1D242D",
"O  c #262C39",
"+  c #292E3D",
"@  c #274033",
"#  c #2D3344",
"$  c #303649",
"%  c #33394D",
"&  c #353C50",
"*  c #2A4444",
"=  c #2B4A46",
"-  c #2D4D4B",
";  c #304F4F",
":  c #325251",
">  c #3A6C48",
",  c #0E8E32",
"<  c #0FAE3D",
"1  c #1FA64A",
"2  c #0FB041",
"3  c #11B345",
"4  c #13B64A",
"5  c #14B84E",
"6  c #16BA52",
"7  c #34AA57",
"8  c #35AC58",
"9  c #27B55C",
"0  c #37B45D",
"q  c #39BB60",
"w  c #3FB86C",
"e  c #10C644",
"r  c #10CB45",
"t  c #12CE4C",
"y  c #11D246",
"u  c #11D649",
"i  c #12D94D",
"p  c #15CE52",
"a  c #15D551",
"s  c #15DC54",
"d  c #16DF58",
"f  c #18DE5B",
"g  c #21C354",
"h  c #22DB5D",
"j  c #2BDB5D",
"k  c #17E05A",
"l  c #18E25D",
"z  c #33C164",
"x  c #32DB63",
"c  c #3AD769",
"v  c #3AD96A",
"b  c #1AE563",
"n  c #1BE867",
"m  c #2EE563",
"M  c #29E46D",
"N  c #32E567",
"B  c #36E66A",
"V  c #3AE66E",
"C  c #3EE671",
"Z  c #3DEB7E",
"A  c #4CC379",
"S  c #54CD7A",
"D  c #5EC97F",
"F  c #4EDC7C",
"G  c #43E675",
"H  c #4DE77E",
"J  c #45E87D",
"K  c #4AF179",
"L  c #66C088",
"P  c #69C08A",
"I  c #75D494",
"U  c #75DC95",
"Y  c #7AD598",
"T  c #42EB80",
"R  c #53F181",
"E  c #5CF288",
"W  c #65F290",
"Q  c #6EF397",
"!  c #77F39F",
"~  c #78EAA0",
"^  c #8EEAAB",
"/  c #92EAAF",
"(  c #80F4A6",
")  c #89F4AE",
"_  c #9EE1B1",
"`  c #98E9B1",
"'  c #9FEAB8",
"]  c #A7EDBA",
"[  c #B3E1C1",
"{  c #BEEECC",
"}  c #AEF7C2",
"|  c #BCF1CD",
" . c #C3F2D3",
".. c #C7FAD6",
"X. c #CDFBDA",
"o. c #D2FADE",
"O. c #D6F6E0",
"+. c #DBF6E4",
"@. c #D6FBE1",
"#. c #DBFCE5",
"$. c #E1F7E9",
"%. c #E3FCEB",
"&. c #E8FDEE",
"*. c #EDFDF2",
"=. c #F2FEF6",
/* pixels */
"L w A A A A A A A A A A A A A A A A A A A A A A A A A A A A A A A A w P ",
"9 T Z Z Z Z Z Z Z Z Z Z Z Z Z J Z Z Z Z Z Z Z Z Z Z Z Z Z Z Z Z Z Z J 9 ",
"6 n n n n n n n n n n n n n n n n n n n n n n n n n n n n n n n n n n 6 ",
"6 n n n n n n n n n n b b n n n n b n n n n b n n b n n n n b n n n n 6 ",
"6 b b b b n b n n b n n n n n b n b b n b n b b b n b b b n n b n b n 6 ",
"6 b b b b b b b b n b b b b b b b b b b b b b b b b b b b b b b b b b 5 ",
"6 b b b b b b b M b b b b b b b b b b b b b b b b b b b b b b b b b b 6 ",
"6 b b l b b b ~ $.T k b b b b b b b b b b b b b b b b b b b b b b b b 5 ",
"5 l b b b l M  .=.+.T n b k b b b l b b k b b l b b b l b l b b b b l 5 ",
"5 b l l l b l q | =.+.J b b b k l b l l b b l b f b b l l b l l l b l 5 ",
"5 l l b b l b l z | *.+.J k b k l b k b k b b l b l b b b l l b b l l 4 ",
"4 l l l l k l l l z { *.+.J k b l k b k b k k b f l f l l l l l l l l 4 ",
"4 l l l l l l l l f z | &.O.J k k l l k l l l l l l l l l l l l k l l 4 ",
"4 l l l l k l l l l k z | %.O.J l l l l k l l k l k l l f k k l l l l 4 ",
"4 k k l k k k k k k k f _ %.#.U k k k k k k k k k k k k k l k k k l k 4 ",
"4 d k d d k k k d f l / %.@.Y p k k k k k k k k k k k k k k k k k k k 4 ",
"4 k d d k k d f k k / #.O.Y p k k k k k k k k k k k k k k k k k k k k 3 ",
"3 d d d d d d d d ^ #.o.Y a s k k k d d d d s k k s d d s k k s k s s 3 ",
"4 d d d d d d d ^ #.X.Y p d s k d d d d d d d d k d d k d k d d k k k 3 ",
"3 s d d s d d ^ @.X.Y p d s k s d d d d d d s k s d s d d k s s s k k 3 ",
"3 d d s s s h ` X.I p d k s k k s d s d s d d s s k s k s d d s k s s 3 ",
"3 s d s s s s g D t d s s s s s s s d s s s s d s s s s s s d s s k s 3 ",
"3 s s s s s s s i s s s s s s s s s s s s s s s s k k s s s s s k i k 3 ",
"3 s s s s s s s s s s s s s s s s s s s s s s s s i i s s s s s s s i 3 ",
"3 s s i s s s s i s s s s i s i i s s s s s i s s i a a s a s a s i s < ",
"3 i s s s i s i s s i s s s s s s s i s s i s s s m T R H G C V B B N 1 ",
"< s i i s i i a s i i a i s i i i s s i i i i a t F ) ( ! Q W E H K G * ",
"2 i s i i s i i i i s i i i s i i i ..........{ [ ' ! ! Q W E R K c ; + ",
"< i i i i i i i i i i i i i i i i i } } } } ] _ _ ^ ! ! W E R K v : & # ",
"< i i u i i i i i i i i i i i i i i q q 0 0 0 8 7 S Q W E R K v : & % + ",
"< i i i i u i i i i i u i i i i i i i i t e e e e v W E K K v - $ % $ + ",
"< i u i i i i i u i u i u i i u i i i y r r r r e v E R K v - % $ $ $ + ",
"< u u u u u u u u u u u u u u i u u u y r r r e e x K K c = $ $ $ $ $ + ",
"< u u u u u u u u u u u u u u u u y y r r r e e e j K v = # # # # # # O ",
", u u u u u u u u u u u u u u u u y y y r r r e r j v = # # # # # # # o ",
"> . . . . . . . . . . . . . . . . . . . . . . . . X                   @ "
};
