/* XPM */
static char *user_desktop[] = {
/* columns rows colors chars-per-pixel */
"36 36 179 2 ",
"   c #040B0E",
".  c #0F2731",
"X  c #284D3A",
"o  c #34692E",
"O  c #35742C",
"+  c #515B33",
"@  c #655C3B",
"#  c #466A28",
"$  c #4D7223",
"%  c #666335",
"&  c #0C2D45",
"*  c #0F3146",
"=  c #113447",
"-  c #133847",
";  c #3D3F40",
":  c #373468",
">  c #4E2C7C",
",  c #4E367B",
"<  c #0F475A",
"1  c #3A4546",
"2  c #0B5B75",
"3  c #09617A",
"4  c #4B4E50",
"5  c #695842",
"6  c #7B5D43",
"7  c #496975",
"8  c #74787B",
"9  c #4AB318",
"0  c #71B109",
"q  c #52C711",
"w  c #6FCF05",
"e  c #6FE900",
"r  c #7AEB13",
"t  c #AC941B",
"y  c #81BB00",
"u  c #C1A315",
"i  c #DCAA18",
"p  c #F3AD1D",
"a  c #F8BC13",
"s  c #D59827",
"d  c #CF8537",
"f  c #EE9F28",
"g  c #E99034",
"h  c #8AD01D",
"j  c #90E131",
"k  c #F9C22B",
"l  c #F3B344",
"z  c #5E1D8D",
"x  c #562085",
"c  c #054E98",
"v  c #096584",
"b  c #2C719D",
"n  c #024EA9",
"m  c #075FB5",
"M  c #0960B5",
"N  c #1966B9",
"B  c #1F77BE",
"V  c #3477A4",
"C  c #286BBA",
"Z  c #326ABB",
"A  c #2576BE",
"S  c #3D73B4",
"D  c #3C71BB",
"F  c #347BBF",
"G  c #3D79BE",
"H  c #417DBF",
"J  c #0462C1",
"K  c #0363CD",
"L  c #0B68CF",
"P  c #1F79C2",
"I  c #0361D2",
"U  c #166CD0",
"Y  c #2878C9",
"T  c #377CC0",
"R  c #397DC0",
"E  c #2477D4",
"W  c #2D7CD6",
"Q  c #2C7BDA",
"!  c #327EDD",
"~  c #0E6EE4",
"^  c #1374E5",
"/  c #1C74E5",
"(  c #167AE6",
")  c #1E7AE6",
"_  c #2476E5",
"`  c #2C77E4",
"'  c #237CE7",
"]  c #2E79E5",
"[  c #327CE4",
"{  c #387FE4",
"}  c #347FE8",
"|  c #904EB0",
" . c #9B18C3",
".. c #AE13D4",
"X. c #9D26C3",
"o. c #A92DCB",
"O. c #B739D6",
"+. c #B14FCD",
"@. c #B848D3",
"#. c #028AAD",
"$. c #0195BB",
"%. c #2580BF",
"&. c #5183B2",
"*. c #6C8AA7",
"=. c #2885C0",
"-. c #2E8DC3",
";. c #3B83CD",
":. c #3294C3",
">. c #3984DA",
",. c #02A2CC",
"<. c #01ACD8",
"1. c #1CACD0",
"2. c #1A81E7",
"3. c #1E87E9",
"4. c #2584E8",
"5. c #2986E8",
"6. c #228DEA",
"7. c #3A80E5",
"8. c #3583E8",
"9. c #3387E8",
"0. c #3B85E8",
"q. c #3C8AE9",
"w. c #2693EB",
"e. c #2C9CED",
"r. c #3090EB",
"t. c #03BBE9",
"y. c #32A5EE",
"u. c #30BDE1",
"i. c #36ABF0",
"p. c #3CB4F2",
"a. c #4384C2",
"s. c #4187CF",
"d. c #4489CF",
"f. c #478BD0",
"g. c #448BDA",
"h. c #4C8FDD",
"j. c #4E91DD",
"k. c #5091DF",
"l. c #7BA5CB",
"z. c #4689E6",
"x. c #4D8DE4",
"c. c #428CEA",
"v. c #4E90E1",
"b. c #4492EB",
"n. c #4995EB",
"m. c #419AEC",
"M. c #4D9AEC",
"N. c #5198E7",
"B. c #53A1ED",
"V. c #42BDF3",
"C. c #1CC2EB",
"Z. c #858B8F",
"A. c #999FA4",
"S. c #9DA3A8",
"D. c #9AAFBB",
"F. c #BDE580",
"G. c #E5E2A1",
"H. c #FBE5B7",
"J. c #85A8C7",
"K. c #82AACD",
"L. c #8AAECF",
"P. c #8CAFD0",
"I. c #8DB0D0",
"U. c #B3BBC0",
"Y. c #B8BCC1",
"T. c #D892EA",
"R. c #B8C0C6",
"E. c #BBC3C9",
"W. c #81D1E5",
"Q. c #AEE5F3",
"!. c #C1C8CB",
"~. c #F4F4DC",
"^. c #D5DEE5",
"/. c #F3DEF9",
"(. c #DCE5EB",
"). c #D8F1F7",
"_. c #E6F0F8",
"`. c #E9F2F9",
"'. c #FEFEFD",
/* pixels */
"D.U.!.!.!.!.!.Y.!.!.!.!.!.!.!.!.!.!.!.!.!.!.!.!.!.!.!.!.!.!.!.!.!.!.Y.I.",
"U.`.`.`.`.`.`.(.`.`.`.`.`.`.`.`.`.`.`.`.`.`.`.`.`.`.`.`.`.`.`.`.`.`.`.U.",
"E.`._.^.^.`.`.^._.`._.`.`.`.`.`.`._.`.`._._._._._._._._._._.`.`._._._.E.",
"E.`.R.; 4 (.`.^._.`.`.`.`.`.`.`._._._.`._._._._._._._._._._._._._._._.Y.",
"E._.A.8 4 !.`.^._.`.`._._.`.`.`.`._._._._._._._._._._._._._._._._._._.Y.",
"E._.(.Z.S.`.`.^.`._._.`._._._.`.`.`.`.`._._._._._._._._._._._._._._._.Y.",
"E._._._._._.`.^._._._._.`._.`.`.`.`.`.`.`.`._._._._.`.`.`._._._._._.`.!.",
"*.L.L.K.L.K.L.J.K.P.P.P.P.I.I.I.P.P.P.P.P.P.P.K.l.l.K.K.l.l.J.l.J.l.D.S ",
"b T T T T T T G G F R R R a.R R H a.a.%.a.a.;.&.R Y A A A C N M m m m c ",
"V s.s.W R H ! ;.;.;.;.;.R ;.s.s.d.f.f.d.d.d.d.d.f.d.Y N J J J J J J J c ",
"H j.j.j.h.h.h.f.g.g.>.g.g.g.g.g.g.g.g.h.g.h.g.>.W W W W L K K K J I J n ",
"S j.j.j.k.h.k.k.j.j.j.j.g.g.g.g.g.g.g.>.>.W Q W W W W W >.E L K I I I n ",
"S f.h.x.h.k.k.k.j.j.j.v.k.k.k.k.h.>.Q Q Q Q Q Q Q Q Q Q W Q >.U I I I n ",
"H h.h.x.h.x.x.k.v.v.k.x.v.v.z.! ! ! ! ! ! ! E Q Q Q ! ! Q >.Q 8.! U I n ",
"H z.h.x.x.x.x.x.x.j.v.x.g.! ! ! ! ! ! ! ! ! ! ! ! ! ! ! ! ! ! >.! { ` n ",
"S g.x.x.x.x.x.x.x.z.{ ! ] [ [ ! [ ! [ ! ! [ [ ! [ [ ! [ ! [ [ [ [ { { Z ",
"D x.z.x.x.z.x.z.{ ] ] ] ` [ [ ] [ [ [ [ [ [ ] ] ] [ ] [ [ [ [ { 7.7.7.Z ",
"D x.z.x.x.z.} ] ` ] ] ] [ ] ] ] ] [ ] ` ` ` ` ` [ ` [ ] [ [ [ { 7.7.7.Z ",
"D x.z.z.} ` ] ] [ [ ] ] [ ] ] ] ] ` ` ` ] ] ] ] ] [ [ } { { { { 7.7.{ Z ",
"Z c.} _ ` ` _ ] [ [ } } } [ } ` ` ] ] [ ] } } 8.} { } 0.} } } z.7.7.7.T ",
"Z _ / / / / / / / / / _ ( ' } ] } } } 8.8.8.8.0.0.q.q.q.c.c.c.c.z.c.z.T ",
"U ` _ _ ) ) ) / / ~ ~ ~ ~ ~ ~ ^ ( ' 5.8.q.0.q.q.q.q.q.q.c.c.c.c.c.c.n.T ",
"U ' _ ' ' ' ) ^ ^ ^ ^ ^ ^ ^ ^ ^ ^ ^ ^ ^ ( ' 9.q.q.b.c.b.b.n.c.n.n.n.n.R ",
"C 5.5.' 4.) ( ( ( ( ( ( ( ( ( 2.( ( ( ( ( ( ( ( ) 5.q.b.n.n.n.M.M.M.M.a.",
"Y 5.5.6.2.2.2.2.2.2.2.2.2.2.2.2.2.2.2.2.2.2.2.2.3.2.3.( 4.r.m.B.N.B.B.&.",
"A 5.3.2.3.3.3.3.3.3.3.3.3.3.3.3.3.3.3.3.3.3.3.3.3.3.3.3.3.3.3.3.r.y.B.a.",
"C 3.6.w.6.6.6.6.w.3.3.3.6.6.6.6.3.w.3.w.3.w.3.w.6.6.6.6.6.6.6.6.6.6.w.A ",
"B w.w.P P P P P P P P P P P P P P P P P P P P P P P P P P P P P B w.w.A ",
"=.e.e.& & & & & * & & & & & & & & & & & = * * & & & & * & & & & & e.w.A ",
"P e.e.* 9 q q q q o * 2 ,.,.,.,.$.* < z | | | | : * + u u u u t = e.e.%.",
"=.y.y.* q e r r e O * v t.t.C.t.<.- - +.@.@.@.@.x < % a a k a i = y.i.%.",
"-.i.i.= w j '.G.w O = v <.Q.'.u.,.- . o.@.'./.O., . % p H.'.l s - i.i.%.",
"-.p.p.* 0 h ~.F.w # = 2 ,.W.).1.$.= = X.O./.T.o.> = @ f G.~.g g = i.i.:.",
":.p.p.= 0 0 h 0 y # = 2 $.$.$.$.#.= -  .........> - @ g g g g d = V.V.:.",
"%.V.V.- $ $ $ $ $ X - < 3 3 3 3 2 - - x z z z z : = 1 6 6 6 6 5 - V.V.V ",
"7 . .                                                             . . 7 "
};
